{"accessors":[{"bufferView":0,"componentType":5126,"count":3142,"min":[-7.065030574798584,0.0,-7.065030574798584],"max":[8.905550003051758,134.5113983154297,7.065030574798584],"type":"VEC3","name":"meshId1_name_vertices#0_POSITION"},{"bufferView":0,"byteOffset":12,"componentType":5120,"count":3142,"type":"VEC4","name":"meshId1_name_vertices#0_TANGENT"},{"bufferView":0,"byteOffset":16,"componentType":5120,"count":3142,"type":"VEC4","name":"meshId1_name_vertices#0_NORMAL"},{"bufferView":0,"byteOffset":20,"componentType":5122,"count":3142,"type":"VEC2","name":"meshId1_name_vertices#0_TEXCOORD_0"},{"bufferView":0,"byteOffset":24,"componentType":5122,"count":3142,"type":"VEC2","name":"meshId1_name_vertices#0_TEXCOORD_1"},{"bufferView":0,"byteOffset":28,"componentType":5123,"count":3142,"type":"VEC4","name":"meshId1_name_vertices#0_COLOR_0"},{"bufferView":1,"componentType":5123,"count":5178,"type":"SCALAR","name":"meshId1_name_indices#0"},{"bufferView":0,"byteOffset":113112,"componentType":5126,"count":453,"min":[-6.9215898513793949,40.01530838012695,-6.9215898513793949],"max":[6.9215898513793949,123.53900909423828,6.9215898513793949],"type":"VEC3","name":"meshId1_name.001_vertices#0_POSITION"},{"bufferView":0,"byteOffset":113124,"componentType":5120,"count":453,"type":"VEC4","name":"meshId1_name.001_vertices#0_TANGENT"},{"bufferView":0,"byteOffset":113128,"componentType":5120,"count":453,"type":"VEC4","name":"meshId1_name.001_vertices#0_NORMAL"},{"bufferView":0,"byteOffset":113132,"componentType":5122,"count":453,"type":"VEC2","name":"meshId1_name.001_vertices#0_TEXCOORD_0"},{"bufferView":0,"byteOffset":113136,"componentType":5122,"count":453,"type":"VEC2","name":"meshId1_name.001_vertices#0_TEXCOORD_1"},{"bufferView":0,"byteOffset":113140,"componentType":5123,"count":453,"type":"VEC4","name":"meshId1_name.001_vertices#0_COLOR_0"},{"bufferView":1,"byteOffset":10356,"componentType":5123,"count":663,"type":"SCALAR","name":"meshId1_name.001_indices#0"}],"asset":{"generator":"Extended Khronos glTF Blender I/O v1.0.0","copyright":"Tatu Kantomaa","version":"2.0","extensions":{"ASOBO_asset_optimized":{"BoundingBoxMax":[8.905550003051758,134.5113983154297,7.065030574798584],"BoundingBoxMin":[-7.065030574798584,0.0,-7.065030574798584],"MajorVersion":4,"MinorVersion":2},"ASOBO_normal_map_convention":{"tangent_space_convention":"DirectX"}}},"bufferViews":[{"buffer":0,"byteLength":129420,"byteStride":36,"target":34962,"name":"BufferViewVertexND"},{"buffer":0,"byteLength":11682,"byteOffset":129420,"target":34963,"name":"BufferViewIndex"}],"extensionsUsed":["ASOBO_normal_map_convention","MSFT_texture_dds","ASOBO_asset_optimized"],"extensionsRequired":["MSFT_texture_dds"],"materials":[{"name":"Opaque","pbrMetallicRoughness":{"metallicFactor":0.0,"roughnessFactor":0.5,"baseColorTexture":{"index":0}}},{"name":"Alpha","alphaMode":"BLEND","doubleSided":true,"pbrMetallicRoughness":{"metallicFactor":0.0,"roughnessFactor":0.5,"baseColorTexture":{"index":1}}}],"meshes":[{"primitives":[{"attributes":{"COLOR_0":5,"NORMAL":2,"POSITION":0,"TANGENT":1,"TEXCOORD_0":3,"TEXCOORD_1":4},"indices":6,"material":0,"mode":4,"extras":{"ASOBO_primitive":{"PrimitiveCount":1726,"VertexType":"VTX","VertexVersion":2}}}],"name":"meshId1_name"},{"primitives":[{"attributes":{"COLOR_0":12,"NORMAL":9,"POSITION":7,"TANGENT":8,"TEXCOORD_0":10,"TEXCOORD_1":11},"indices":13,"material":1,"mode":4,"extras":{"ASOBO_primitive":{"PrimitiveCount":221,"VertexType":"VTX","VertexVersion":2}}}],"name":"meshId1_name.001"}],"nodes":[{"mesh":0,"name":"Paasky"},{"mesh":1,"name":"Alpha"}],"scene":0,"scenes":[{"nodes":[0,1],"name":"Scene"}],"textures":[{"extensions":{"MSFT_texture_dds":{"source":0}}},{"extensions":{"MSFT_texture_dds":{"source":0}}}],"buffers":[{"byteLength":141102,"uri":"Paaskyvuori.bin"}],"images":[{"uri":"PAASKYVUORI.PNG.DDS","name":"paaskyvuori","extras":"ASOBO_image_converted_meta"}]}
