{"accessors":[{"bufferView":0,"componentType":5126,"count":11921,"min":[-10.00447940826416,0.0,-10.00447940826416],"max":[10.00447940826416,86.73883819580078,10.00447940826416],"type":"VEC3","name":"meshId0_name_vertices#0_POSITION"},{"bufferView":0,"byteOffset":12,"componentType":5120,"count":11921,"type":"VEC4","name":"meshId0_name_vertices#0_TANGENT"},{"bufferView":0,"byteOffset":16,"componentType":5120,"count":11921,"type":"VEC4","name":"meshId0_name_vertices#0_NORMAL"},{"bufferView":0,"byteOffset":20,"componentType":5122,"count":11921,"type":"VEC2","name":"meshId0_name_vertices#0_TEXCOORD_0"},{"bufferView":0,"byteOffset":24,"componentType":5122,"count":11921,"type":"VEC2","name":"meshId0_name_vertices#0_TEXCOORD_1"},{"bufferView":0,"byteOffset":28,"componentType":5123,"count":11921,"type":"VEC4","name":"meshId0_name_vertices#0_COLOR_0"},{"bufferView":1,"componentType":5123,"count":17148,"type":"SCALAR","name":"meshId0_name_indices#0"},{"bufferView":0,"byteOffset":429156,"componentType":5126,"count":334,"min":[-8.02637004852295,37.320350646972659,-8.02637004852295],"max":[8.02637004852295,86.95008087158203,8.02637004852295],"type":"VEC3","name":"meshId0_name.001_vertices#0_POSITION"},{"bufferView":0,"byteOffset":429168,"componentType":5120,"count":334,"type":"VEC4","name":"meshId0_name.001_vertices#0_TANGENT"},{"bufferView":0,"byteOffset":429172,"componentType":5120,"count":334,"type":"VEC4","name":"meshId0_name.001_vertices#0_NORMAL"},{"bufferView":0,"byteOffset":429176,"componentType":5122,"count":334,"type":"VEC2","name":"meshId0_name.001_vertices#0_TEXCOORD_0"},{"bufferView":0,"byteOffset":429180,"componentType":5122,"count":334,"type":"VEC2","name":"meshId0_name.001_vertices#0_TEXCOORD_1"},{"bufferView":0,"byteOffset":429184,"componentType":5123,"count":334,"type":"VEC4","name":"meshId0_name.001_vertices#0_COLOR_0"},{"bufferView":1,"byteOffset":34296,"componentType":5123,"count":492,"type":"SCALAR","name":"meshId0_name.001_indices#0"}],"asset":{"generator":"Extended Khronos glTF Blender I/O v1.0.0","copyright":"Tatu Kantomaa","version":"2.0","extensions":{"ASOBO_asset_optimized":{"BoundingBoxMax":[10.00447940826416,86.95008087158203,10.00447940826416],"BoundingBoxMin":[-10.00447940826416,0.0,-10.00447940826416],"MajorVersion":4,"MinorVersion":2},"ASOBO_normal_map_convention":{"tangent_space_convention":"DirectX"}}},"bufferViews":[{"buffer":0,"byteLength":441180,"byteStride":36,"target":34962,"name":"BufferViewVertexND"},{"buffer":0,"byteLength":35280,"byteOffset":441180,"target":34963,"name":"BufferViewIndex"}],"extensionsUsed":["ASOBO_normal_map_convention","ASOBO_material_day_night_switch","MSFT_texture_dds","ASOBO_asset_optimized"],"extensionsRequired":["MSFT_texture_dds"],"materials":[{"name":"m0mat","emissiveTexture":{"index":0},"emissiveFactor":[0.14702729880809785,0.14702729880809785,0.14702729880809785],"pbrMetallicRoughness":{"metallicFactor":0.0,"roughnessFactor":0.5,"baseColorTexture":{"index":1}},"extensions":{"ASOBO_material_day_night_switch":{}}},{"name":"Alpha","alphaMode":"BLEND","doubleSided":true,"emissiveTexture":{"index":2},"emissiveFactor":[0.054480284452438357,0.054480284452438357,0.054480284452438357],"pbrMetallicRoughness":{"metallicFactor":0.0,"roughnessFactor":0.5,"baseColorTexture":{"index":3}}}],"meshes":[{"primitives":[{"attributes":{"COLOR_0":5,"NORMAL":2,"POSITION":0,"TANGENT":1,"TEXCOORD_0":3,"TEXCOORD_1":4},"indices":6,"material":0,"mode":4,"extras":{"ASOBO_primitive":{"PrimitiveCount":5716,"VertexType":"VTX","VertexVersion":2}}}],"name":"meshId0_name"},{"primitives":[{"attributes":{"COLOR_0":12,"NORMAL":9,"POSITION":7,"TANGENT":8,"TEXCOORD_0":10,"TEXCOORD_1":11},"indices":13,"material":1,"mode":4,"extras":{"ASOBO_primitive":{"PrimitiveCount":164,"VertexType":"VTX","VertexVersion":2}}}],"name":"meshId0_name.001"}],"nodes":[{"mesh":0,"name":"Opaque"},{"mesh":1,"name":"Alpha"}],"scene":0,"scenes":[{"nodes":[0,1],"name":"Scene"}],"textures":[{"extensions":{"MSFT_texture_dds":{"source":0}}},{"extensions":{"MSFT_texture_dds":{"source":1}}},{"extensions":{"MSFT_texture_dds":{"source":0}}},{"extensions":{"MSFT_texture_dds":{"source":1}}}],"buffers":[{"byteLength":476460,"uri":"Puijo.bin"}],"images":[{"uri":"PUIJO_LM.PNG.DDS","name":"Puijo_LM","extras":"ASOBO_image_converted_meta"},{"uri":"PUIJO.PNG.DDS","name":"Puijo","extras":"ASOBO_image_converted_meta"}]}
