{"accessors":[{"bufferView":0,"componentType":5126,"count":18,"min":[-9.53102970123291,74.5999984741211,-12.619999885559082],"max":[11.969999313354493,81.26107025146485,12.619999885559082],"type":"VEC3","name":"node2.001_vertices#0_POSITION"},{"bufferView":0,"byteOffset":12,"componentType":5120,"count":18,"type":"VEC4","name":"node2.001_vertices#0_TANGENT"},{"bufferView":0,"byteOffset":16,"componentType":5120,"count":18,"type":"VEC4","name":"node2.001_vertices#0_NORMAL"},{"bufferView":0,"byteOffset":20,"componentType":5122,"count":18,"type":"VEC2","name":"node2.001_vertices#0_TEXCOORD_0"},{"bufferView":0,"byteOffset":24,"componentType":5122,"count":18,"type":"VEC2","name":"node2.001_vertices#0_TEXCOORD_1"},{"bufferView":0,"byteOffset":28,"componentType":5123,"count":18,"type":"VEC4","name":"node2.001_vertices#0_COLOR_0"},{"bufferView":1,"componentType":5123,"count":18,"type":"SCALAR","name":"node2.001_indices#0"},{"bufferView":0,"byteOffset":648,"componentType":5126,"count":4,"min":[-12.079909324645996,78.0950927734375,-4.235829830169678],"max":[-12.079909324645996,81.0950927734375,3.764169931411743],"type":"VEC3","name":"node2.002_vertices#0_POSITION"},{"bufferView":0,"byteOffset":660,"componentType":5120,"count":4,"type":"VEC4","name":"node2.002_vertices#0_TANGENT"},{"bufferView":0,"byteOffset":664,"componentType":5120,"count":4,"type":"VEC4","name":"node2.002_vertices#0_NORMAL"},{"bufferView":0,"byteOffset":668,"componentType":5122,"count":4,"type":"VEC2","name":"node2.002_vertices#0_TEXCOORD_0"},{"bufferView":0,"byteOffset":672,"componentType":5122,"count":4,"type":"VEC2","name":"node2.002_vertices#0_TEXCOORD_1"},{"bufferView":0,"byteOffset":676,"componentType":5123,"count":4,"type":"VEC4","name":"node2.002_vertices#0_COLOR_0"},{"bufferView":1,"byteOffset":36,"componentType":5123,"count":6,"type":"SCALAR","name":"node2.002_indices#0"},{"bufferView":0,"byteOffset":792,"componentType":5126,"count":669,"min":[-12.103289604187012,0.0,-12.619999885559082],"max":[11.969999313354493,83.8556137084961,12.619999885559082],"type":"VEC3","name":"node2_vertices#0_POSITION"},{"bufferView":0,"byteOffset":804,"componentType":5120,"count":669,"type":"VEC4","name":"node2_vertices#0_TANGENT"},{"bufferView":0,"byteOffset":808,"componentType":5120,"count":669,"type":"VEC4","name":"node2_vertices#0_NORMAL"},{"bufferView":0,"byteOffset":812,"componentType":5122,"count":669,"type":"VEC2","name":"node2_vertices#0_TEXCOORD_0"},{"bufferView":0,"byteOffset":816,"componentType":5122,"count":669,"type":"VEC2","name":"node2_vertices#0_TEXCOORD_1"},{"bufferView":0,"byteOffset":820,"componentType":5123,"count":669,"type":"VEC4","name":"node2_vertices#0_COLOR_0"},{"bufferView":1,"byteOffset":48,"componentType":5123,"count":807,"type":"SCALAR","name":"node2_indices#0"}],"asset":{"generator":"Extended Khronos glTF Blender I/O v1.0.0","version":"2.0","extensions":{"ASOBO_asset_optimized":{"BoundingBoxMax":[11.969999313354493,83.8556137084961,12.619999885559082],"BoundingBoxMin":[-12.103289604187012,0.0,-12.619999885559082],"MajorVersion":4,"MinorVersion":2},"ASOBO_normal_map_convention":{"tangent_space_convention":"DirectX"}}},"bufferViews":[{"buffer":0,"byteLength":24876,"byteStride":36,"target":34962,"name":"BufferViewVertexND"},{"buffer":0,"byteLength":1662,"byteOffset":24876,"target":34963,"name":"BufferViewIndex"}],"extensionsUsed":["ASOBO_normal_map_convention","ASOBO_material_day_night_switch","MSFT_texture_dds","ASOBO_asset_optimized"],"extensionsRequired":["MSFT_texture_dds"],"materials":[{"name":"Alpha","alphaMode":"BLEND","doubleSided":true,"emissiveTexture":{"index":0},"emissiveFactor":[0.14702729880809785,0.14702729880809785,0.14702729880809785],"pbrMetallicRoughness":{"metallicFactor":0.0,"roughnessFactor":0.5,"baseColorTexture":{"index":1}},"extensions":{"ASOBO_material_day_night_switch":{}}},{"name":"Alpha_kyltti","alphaMode":"BLEND","emissiveTexture":{"index":2},"emissiveFactor":[1.0,1.0,1.0],"pbrMetallicRoughness":{"metallicFactor":0.0,"roughnessFactor":0.5,"baseColorTexture":{"index":3}},"extensions":{"ASOBO_material_day_night_switch":{}}},{"name":"Opaque","emissiveTexture":{"index":4},"emissiveFactor":[0.14702729880809785,0.14702729880809785,0.14702729880809785],"pbrMetallicRoughness":{"metallicFactor":0.0,"roughnessFactor":0.5,"baseColorTexture":{"index":5}},"extensions":{"ASOBO_material_day_night_switch":{}}}],"meshes":[{"primitives":[{"attributes":{"COLOR_0":5,"NORMAL":2,"POSITION":0,"TANGENT":1,"TEXCOORD_0":3,"TEXCOORD_1":4},"indices":6,"material":0,"mode":4,"extras":{"ASOBO_primitive":{"PrimitiveCount":6,"VertexType":"VTX","VertexVersion":2}}}],"name":"node2.001"},{"primitives":[{"attributes":{"COLOR_0":12,"NORMAL":9,"POSITION":7,"TANGENT":8,"TEXCOORD_0":10,"TEXCOORD_1":11},"indices":13,"material":1,"mode":4,"extras":{"ASOBO_primitive":{"PrimitiveCount":2,"VertexType":"VTX","VertexVersion":2}}}],"name":"node2.002"},{"primitives":[{"attributes":{"COLOR_0":19,"NORMAL":16,"POSITION":14,"TANGENT":15,"TEXCOORD_0":17,"TEXCOORD_1":18},"indices":20,"material":2,"mode":4,"extras":{"ASOBO_primitive":{"PrimitiveCount":269,"VertexType":"VTX","VertexVersion":2}}}],"name":"node2"}],"nodes":[{"mesh":0,"name":"Alpha"},{"mesh":1,"name":"Alpha_kyltti"},{"mesh":2,"name":"Opaque"}],"scene":0,"scenes":[{"nodes":[0,1,2],"name":"Scene"}],"textures":[{"extensions":{"MSFT_texture_dds":{"source":0}}},{"extensions":{"MSFT_texture_dds":{"source":1}}},{"extensions":{"MSFT_texture_dds":{"source":0}}},{"extensions":{"MSFT_texture_dds":{"source":1}}},{"extensions":{"MSFT_texture_dds":{"source":0}}},{"extensions":{"MSFT_texture_dds":{"source":1}}}],"buffers":[{"byteLength":26538,"uri":"Tornihotelli.bin"}],"images":[{"uri":"TAMPERE_TORNI_LM.PNG.DDS","name":"Tampere_torni_LM","extras":"ASOBO_image_converted_meta"},{"uri":"TAMPERE_TORNI.PNG.DDS","name":"Tampere_torni","extras":"ASOBO_image_converted_meta"}]}
