{"accessors":[{"bufferView":0,"componentType":5126,"count":1136,"min":[-3.3904800415039064,-0.00046999999904073775,-3.3904800415039064],"max":[3.3904800415039064,67.12390899658203,3.3904800415039064],"type":"VEC3","name":"Finlayson_vertices#0_POSITION"},{"bufferView":0,"byteOffset":12,"componentType":5120,"count":1136,"type":"VEC4","name":"Finlayson_vertices#0_TANGENT"},{"bufferView":0,"byteOffset":16,"componentType":5120,"count":1136,"type":"VEC4","name":"Finlayson_vertices#0_NORMAL"},{"bufferView":0,"byteOffset":20,"componentType":5122,"count":1136,"type":"VEC2","name":"Finlayson_vertices#0_TEXCOORD_0"},{"bufferView":0,"byteOffset":24,"componentType":5122,"count":1136,"type":"VEC2","name":"Finlayson_vertices#0_TEXCOORD_1"},{"bufferView":0,"byteOffset":28,"componentType":5123,"count":1136,"type":"VEC4","name":"Finlayson_vertices#0_COLOR_0"},{"bufferView":1,"componentType":5123,"count":3264,"type":"SCALAR","name":"Finlayson_indices#0"}],"asset":{"generator":"Extended Khronos glTF Blender I/O v1.0.0","copyright":"Tatu Kantomaa","version":"2.0","extensions":{"ASOBO_asset_optimized":{"BoundingBoxMax":[3.3904800415039064,67.12390899658203,3.3904800415039064],"BoundingBoxMin":[-3.3904800415039064,-0.00046999999904073775,-3.3904800415039064],"MajorVersion":4,"MinorVersion":2},"ASOBO_normal_map_convention":{"tangent_space_convention":"DirectX"}}},"bufferViews":[{"buffer":0,"byteLength":40896,"byteStride":36,"target":34962,"name":"BufferViewVertexND"},{"buffer":0,"byteLength":6528,"byteOffset":40896,"target":34963,"name":"BufferViewIndex"}],"extensionsUsed":["ASOBO_normal_map_convention","MSFT_texture_dds","ASOBO_asset_optimized"],"extensionsRequired":["MSFT_texture_dds"],"materials":[{"name":"$Material_0","pbrMetallicRoughness":{"metallicFactor":0.0,"roughnessFactor":0.5,"baseColorTexture":{"index":0}}}],"meshes":[{"primitives":[{"attributes":{"COLOR_0":5,"NORMAL":2,"POSITION":0,"TANGENT":1,"TEXCOORD_0":3,"TEXCOORD_1":4},"indices":6,"material":0,"mode":4,"extras":{"ASOBO_primitive":{"PrimitiveCount":1088,"VertexType":"VTX","VertexVersion":2}}}],"name":"Finlayson"}],"nodes":[{"mesh":0,"name":"Finlayson"}],"scene":0,"scenes":[{"nodes":[0],"name":"Scene"}],"textures":[{"extensions":{"MSFT_texture_dds":{"source":0}}}],"buffers":[{"byteLength":47424,"uri":"fin_obst_finlayson.bin"}],"images":[{"uri":"RED_BRICKS.PNG.DDS","name":"red_bricks","extras":"ASOBO_image_converted_meta"}]}
