{"accessors":[{"bufferView":0,"componentType":5126,"count":965,"min":[-3.99685001373291,-152.78701782226563,-3.940880060195923],"max":[3.99685001373291,3.117370128631592,3.940880060195923],"type":"VEC3","name":"meshId0_name_vertices#0_POSITION"},{"bufferView":0,"byteOffset":12,"componentType":5120,"count":965,"type":"VEC4","name":"meshId0_name_vertices#0_TANGENT"},{"bufferView":0,"byteOffset":16,"componentType":5120,"count":965,"type":"VEC4","name":"meshId0_name_vertices#0_NORMAL"},{"bufferView":0,"byteOffset":20,"componentType":5122,"count":965,"type":"VEC2","name":"meshId0_name_vertices#0_TEXCOORD_0"},{"bufferView":0,"byteOffset":24,"componentType":5122,"count":965,"type":"VEC2","name":"meshId0_name_vertices#0_TEXCOORD_1"},{"bufferView":0,"byteOffset":28,"componentType":5123,"count":965,"type":"VEC4","name":"meshId0_name_vertices#0_COLOR_0"},{"bufferView":1,"componentType":5123,"count":1830,"type":"SCALAR","name":"meshId0_name_indices#0"},{"bufferView":0,"byteOffset":34740,"componentType":5126,"count":136,"min":[-3.99685001373291,-15.927529335021973,-3.940880060195923],"max":[3.99685001373291,-4.153079986572266,3.940880060195923],"type":"VEC3","name":"meshId0_name.001_vertices#0_POSITION"},{"bufferView":0,"byteOffset":34752,"componentType":5120,"count":136,"type":"VEC4","name":"meshId0_name.001_vertices#0_TANGENT"},{"bufferView":0,"byteOffset":34756,"componentType":5120,"count":136,"type":"VEC4","name":"meshId0_name.001_vertices#0_NORMAL"},{"bufferView":0,"byteOffset":34760,"componentType":5122,"count":136,"type":"VEC2","name":"meshId0_name.001_vertices#0_TEXCOORD_0"},{"bufferView":0,"byteOffset":34764,"componentType":5122,"count":136,"type":"VEC2","name":"meshId0_name.001_vertices#0_TEXCOORD_1"},{"bufferView":0,"byteOffset":34768,"componentType":5123,"count":136,"type":"VEC4","name":"meshId0_name.001_vertices#0_COLOR_0"},{"bufferView":1,"byteOffset":3660,"componentType":5123,"count":168,"type":"SCALAR","name":"meshId0_name.001_indices#0"}],"asset":{"generator":"Extended Khronos glTF Blender I/O v1.0.0","copyright":"Tatu Kantomaa","version":"2.0","extensions":{"ASOBO_asset_optimized":{"BoundingBoxMax":[3.99685001373291,3.117370128631592,3.940880060195923],"BoundingBoxMin":[-3.99685001373291,-152.78701782226563,-3.940880060195923],"MajorVersion":4,"MinorVersion":2},"ASOBO_normal_map_convention":{"tangent_space_convention":"DirectX"}}},"bufferViews":[{"buffer":0,"byteLength":39636,"byteStride":36,"target":34962,"name":"BufferViewVertexND"},{"buffer":0,"byteLength":3996,"byteOffset":39636,"target":34963,"name":"BufferViewIndex"}],"extensionsUsed":["ASOBO_normal_map_convention","MSFT_texture_dds","ASOBO_asset_optimized"],"extensionsRequired":["MSFT_texture_dds"],"materials":[{"name":"Opaque","pbrMetallicRoughness":{"metallicFactor":0.0,"roughnessFactor":0.5,"baseColorTexture":{"index":0}}},{"name":"Alpha","alphaMode":"BLEND","doubleSided":true,"pbrMetallicRoughness":{"metallicFactor":0.0,"roughnessFactor":0.5,"baseColorTexture":{"index":1}}}],"meshes":[{"primitives":[{"attributes":{"COLOR_0":5,"NORMAL":2,"POSITION":0,"TANGENT":1,"TEXCOORD_0":3,"TEXCOORD_1":4},"indices":6,"material":0,"mode":4,"extras":{"ASOBO_primitive":{"PrimitiveCount":610,"VertexType":"VTX","VertexVersion":2}}}],"name":"meshId0_name"},{"primitives":[{"attributes":{"COLOR_0":12,"NORMAL":9,"POSITION":7,"TANGENT":8,"TEXCOORD_0":10,"TEXCOORD_1":11},"indices":13,"material":1,"mode":4,"extras":{"ASOBO_primitive":{"PrimitiveCount":56,"VertexType":"VTX","VertexVersion":2}}}],"name":"meshId0_name.001"}],"nodes":[{"mesh":0,"name":"Opaque"},{"mesh":1,"name":"Alpha"}],"scene":0,"scenes":[{"nodes":[0,1],"name":"Scene"}],"textures":[{"extensions":{"MSFT_texture_dds":{"source":0}}},{"extensions":{"MSFT_texture_dds":{"source":0}}}],"buffers":[{"byteLength":43632,"uri":"Saatutka.bin"}],"images":[{"uri":"WEATHER_RADAR.PNG.DDS","name":"Weather_radar","extras":"ASOBO_image_converted_meta"}]}
