{"accessors":[{"bufferView":0,"componentType":5126,"count":692,"min":[-5.0,-60.0,-5.0],"max":[5.0,63.35720443725586,5.0],"type":"VEC3","name":"Cylinder_vertices#0_POSITION"},{"bufferView":0,"byteOffset":12,"componentType":5120,"count":692,"type":"VEC4","name":"Cylinder_vertices#0_TANGENT"},{"bufferView":0,"byteOffset":16,"componentType":5120,"count":692,"type":"VEC4","name":"Cylinder_vertices#0_NORMAL"},{"bufferView":0,"byteOffset":20,"componentType":5122,"count":692,"type":"VEC2","name":"Cylinder_vertices#0_TEXCOORD_0"},{"bufferView":0,"byteOffset":24,"componentType":5122,"count":692,"type":"VEC2","name":"Cylinder_vertices#0_TEXCOORD_1"},{"bufferView":0,"byteOffset":28,"componentType":5123,"count":692,"type":"VEC4","name":"Cylinder_vertices#0_COLOR_0"},{"bufferView":1,"componentType":5123,"count":1332,"type":"SCALAR","name":"Cylinder_indices#2"}],"asset":{"generator":"Extended Khronos glTF Blender I/O v1.0.0","copyright":"Juha Rönkkö","version":"2.0","extensions":{"ASOBO_asset_optimized":{"BoundingBoxMax":[5.0,63.35720443725586,5.0],"BoundingBoxMin":[-5.0,-60.0,-5.0],"MajorVersion":4,"MinorVersion":2},"ASOBO_normal_map_convention":{"tangent_space_convention":"DirectX"}}},"bufferViews":[{"buffer":0,"byteLength":24912,"byteStride":36,"target":34962,"name":"BufferViewVertexND"},{"buffer":0,"byteLength":2664,"byteOffset":24912,"target":34963,"name":"BufferViewIndex"}],"extensionsUsed":["ASOBO_normal_map_convention","MSFT_texture_dds","ASOBO_asset_optimized"],"extensionsRequired":["MSFT_texture_dds"],"materials":[{"name":"betoni","normalTexture":{"index":0},"pbrMetallicRoughness":{"metallicFactor":0.0,"roughnessFactor":0.7851710915565491,"baseColorTexture":{"index":1}}},{"name":"chim_top","pbrMetallicRoughness":{"baseColorFactor":[0.06171188876032829,0.06171188876032829,0.06171188876032829,1.0],"metallicFactor":0.5931559205055237,"roughnessFactor":0.5}},{"name":"betoni_tumma","normalTexture":{"index":2},"pbrMetallicRoughness":{"metallicFactor":0.0,"roughnessFactor":0.7813688516616821,"baseColorTexture":{"index":3}}}],"meshes":[{"primitives":[{"attributes":{"COLOR_0":5,"NORMAL":2,"POSITION":0,"TANGENT":1,"TEXCOORD_0":3,"TEXCOORD_1":4},"indices":6,"material":0,"mode":4,"extras":{"ASOBO_primitive":{"PrimitiveCount":94,"VertexType":"VTX","VertexVersion":2}}},{"attributes":{"COLOR_0":5,"NORMAL":2,"POSITION":0,"TANGENT":1,"TEXCOORD_0":3,"TEXCOORD_1":4},"indices":6,"material":1,"mode":4,"extras":{"ASOBO_primitive":{"PrimitiveCount":222,"StartIndex":282,"VertexType":"VTX","VertexVersion":2}}},{"attributes":{"COLOR_0":5,"NORMAL":2,"POSITION":0,"TANGENT":1,"TEXCOORD_0":3,"TEXCOORD_1":4},"indices":6,"material":2,"mode":4,"extras":{"ASOBO_primitive":{"PrimitiveCount":128,"StartIndex":948,"VertexType":"VTX","VertexVersion":2}}}],"name":"Cylinder"}],"nodes":[{"translation":[0.0,60.03284454345703,0.0],"mesh":0,"name":"Cylinder"}],"scene":0,"scenes":[{"nodes":[0],"name":"Scene","extras":{"glTF2ExportSettings":{"export_apply":1,"export_copyright":"Juha Rönkkö","export_extras":1,"export_generate_guid":1,"export_texture_dir":"../texture","export_xml":1,"export_xml_file":"betoni_piippu.xml","use_selection":1},"msfs_guid":"{ced51781-a589-4c96-baae-f3517542dc36}"}}],"textures":[{"extensions":{"MSFT_texture_dds":{"source":0}}},{"extensions":{"MSFT_texture_dds":{"source":1}}},{"extensions":{"MSFT_texture_dds":{"source":0}}},{"extensions":{"MSFT_texture_dds":{"source":2}}}],"buffers":[{"byteLength":27576,"uri":"betoni_piippu.bin"}],"images":[{"uri":"BETONI_NORM.PNG.DDS","name":"Betoni_NORM","extras":"ASOBO_image_converted_meta"},{"uri":"BETONI.PNG.DDS","name":"Betoni","extras":"ASOBO_image_converted_meta"},{"uri":"BETONI_TUMMA.PNG.DDS","name":"Betoni_tumma","extras":"ASOBO_image_converted_meta"}]}
