{"accessors":[{"bufferView":0,"componentType":5126,"count":936,"min":[-2.8334226608276369,-162.83299255371095,-2.877048969268799],"max":[2.833277940750122,161.437744140625,2.7035419940948488],"type":"VEC3","name":"Cylinder.971_vertices#0_POSITION"},{"bufferView":0,"byteOffset":12,"componentType":5120,"count":936,"type":"VEC4","name":"Cylinder.971_vertices#0_TANGENT"},{"bufferView":0,"byteOffset":16,"componentType":5120,"count":936,"type":"VEC4","name":"Cylinder.971_vertices#0_NORMAL"},{"bufferView":0,"byteOffset":20,"componentType":5122,"count":936,"type":"VEC2","name":"Cylinder.971_vertices#0_TEXCOORD_0"},{"bufferView":0,"byteOffset":24,"componentType":5122,"count":936,"type":"VEC2","name":"Cylinder.971_vertices#0_TEXCOORD_1"},{"bufferView":0,"byteOffset":28,"componentType":5123,"count":936,"type":"VEC4","name":"Cylinder.971_vertices#0_COLOR_0"},{"bufferView":1,"componentType":5123,"count":1446,"type":"SCALAR","name":"Cylinder.971_indices#0"}],"asset":{"generator":"Extended Khronos glTF Blender I/O v1.0.0","version":"2.0","extensions":{"ASOBO_asset_optimized":{"BoundingBoxMax":[2.8303747177124025,161.76856994628907,2.7007718086242677],"BoundingBoxMin":[-2.830519437789917,-163.1666717529297,-2.874101161956787],"MajorVersion":4,"MinorVersion":2},"ASOBO_normal_map_convention":{"tangent_space_convention":"DirectX"}}},"bufferViews":[{"buffer":0,"byteLength":33696,"byteStride":36,"target":34962,"name":"BufferViewVertexND"},{"buffer":0,"byteLength":2892,"byteOffset":33696,"target":34963,"name":"BufferViewIndex"}],"extensionsUsed":["ASOBO_normal_map_convention","MSFT_texture_dds","ASOBO_asset_optimized"],"extensionsRequired":["MSFT_texture_dds"],"materials":[{"name":"minipalette-material","pbrMetallicRoughness":{"metallicFactor":0.0,"roughnessFactor":0.5,"baseColorTexture":{"index":0}}}],"meshes":[{"primitives":[{"attributes":{"COLOR_0":5,"NORMAL":2,"POSITION":0,"TANGENT":1,"TEXCOORD_0":3,"TEXCOORD_1":4},"indices":6,"material":0,"mode":4,"extras":{"ASOBO_primitive":{"PrimitiveCount":482,"VertexType":"VTX","VertexVersion":2}}}],"name":"Cylinder.971"}],"nodes":[{"translation":[-0.032813072204589847,163.0,0.0],"scale":[1.0,1.0030769109725953,1.0],"mesh":0,"name":"Cylinder.1794"}],"scene":0,"scenes":[{"nodes":[0],"name":"Scene"}],"textures":[{"extensions":{"MSFT_texture_dds":{"source":0}}}],"buffers":[{"byteLength":36588,"uri":"digita_kauklahti_mast_LOD05.bin"}],"images":[{"uri":"TINYPALETTE.PNG.DDS","name":"tinypalette","extras":"ASOBO_image_converted_meta"}]}
