{"accessors":[{"bufferView":0,"componentType":5126,"count":200,"min":[-0.7751200199127197,39.305660247802737,-0.7751200199127197],"max":[0.7751200199127197,100.05020904541016,0.7751200199127197],"type":"VEC3","name":"part000_vertices#0_POSITION"},{"bufferView":0,"byteOffset":12,"componentType":5120,"count":200,"type":"VEC4","name":"part000_vertices#0_TANGENT"},{"bufferView":0,"byteOffset":16,"componentType":5120,"count":200,"type":"VEC4","name":"part000_vertices#0_NORMAL"},{"bufferView":0,"byteOffset":20,"componentType":5122,"count":200,"type":"VEC2","name":"part000_vertices#0_TEXCOORD_0"},{"bufferView":0,"byteOffset":24,"componentType":5122,"count":200,"type":"VEC2","name":"part000_vertices#0_TEXCOORD_1"},{"bufferView":0,"byteOffset":28,"componentType":5123,"count":200,"type":"VEC4","name":"part000_vertices#0_COLOR_0"},{"bufferView":1,"componentType":5123,"count":288,"type":"SCALAR","name":"part000_indices#0"},{"bufferView":0,"byteOffset":7200,"componentType":5126,"count":657,"min":[-1.0,0.05017999932169914,-1.0],"max":[1.0,100.93089294433594,1.0],"type":"VEC3","name":"part001_vertices#0_POSITION"},{"bufferView":0,"byteOffset":7212,"componentType":5120,"count":657,"type":"VEC4","name":"part001_vertices#0_TANGENT"},{"bufferView":0,"byteOffset":7216,"componentType":5120,"count":657,"type":"VEC4","name":"part001_vertices#0_NORMAL"},{"bufferView":0,"byteOffset":7220,"componentType":5122,"count":657,"type":"VEC2","name":"part001_vertices#0_TEXCOORD_0"},{"bufferView":0,"byteOffset":7224,"componentType":5122,"count":657,"type":"VEC2","name":"part001_vertices#0_TEXCOORD_1"},{"bufferView":0,"byteOffset":7228,"componentType":5123,"count":657,"type":"VEC4","name":"part001_vertices#0_COLOR_0"},{"bufferView":1,"byteOffset":576,"componentType":5123,"count":912,"type":"SCALAR","name":"part001_indices#0"}],"asset":{"generator":"ModelConverterX","version":"2.0","extensions":{"ASOBO_asset_optimized":{"BoundingBoxMax":[1.0,100.93089294433594,1.0],"BoundingBoxMin":[-1.0,0.05017999932169914,-1.0],"MajorVersion":4,"MinorVersion":2}}},"bufferViews":[{"buffer":0,"byteLength":30852,"byteStride":36,"target":34962,"name":"BufferViewVertexND"},{"buffer":0,"byteLength":2400,"byteOffset":30852,"target":34963,"name":"BufferViewIndex"}],"extensionsUsed":["ASOBO_asset_optimized"],"materials":[{"name":"glTF_Material","pbrMetallicRoughness":{"baseColorFactor":[0.0,0.001518,0.799103,1.0],"metallicFactor":0.0}},{"name":"glTF_Materialx","pbrMetallicRoughness":{"baseColorFactor":[0.8,0.8,0.8,1.0],"metallicFactor":0.0}}],"meshes":[{"primitives":[{"attributes":{"COLOR_0":5,"NORMAL":2,"POSITION":0,"TANGENT":1,"TEXCOORD_0":3,"TEXCOORD_1":4},"indices":6,"material":0,"mode":4,"extras":{"ASOBO_primitive":{"PrimitiveCount":96,"VertexType":"VTX","VertexVersion":2}}}],"name":"part000"},{"primitives":[{"attributes":{"COLOR_0":12,"NORMAL":9,"POSITION":7,"TANGENT":8,"TEXCOORD_0":10,"TEXCOORD_1":11},"indices":13,"material":1,"mode":4,"extras":{"ASOBO_primitive":{"PrimitiveCount":304,"VertexType":"VTX","VertexVersion":2}}}],"name":"part001"}],"nodes":[{"name":"node0","children":[1,2,3,4]},{"mesh":0,"name":"node1"},{"mesh":1,"name":"node2"},{"translation":[0.0,50.0,-2.0],"rotation":[0.7071067811865476,0.0,0.0,-0.7071067811865475],"scale":[1.0,1.0,1.0],"name":"node3"},{"translation":[0.0,101.0,0.0],"rotation":[0.7071067811865476,0.0,0.0,-0.7071067811865475],"scale":[1.0,1.0,1.0],"name":"node4"}],"scene":0,"scenes":[{"nodes":[0]}],"buffers":[{"byteLength":33252,"uri":"fin_flag.bin"}]}
