{"accessors":[{"bufferView":0,"componentType":5126,"count":704,"min":[-1.0,-50.0,-1.0],"max":[1.0,50.00003433227539,1.0],"type":"VEC3","name":"Cylinder.001_vertices#0_POSITION"},{"bufferView":0,"byteOffset":12,"componentType":5120,"count":704,"type":"VEC4","name":"Cylinder.001_vertices#0_TANGENT"},{"bufferView":0,"byteOffset":16,"componentType":5120,"count":704,"type":"VEC4","name":"Cylinder.001_vertices#0_NORMAL"},{"bufferView":0,"byteOffset":20,"componentType":5122,"count":704,"type":"VEC2","name":"Cylinder.001_vertices#0_TEXCOORD_0"},{"bufferView":0,"byteOffset":24,"componentType":5122,"count":704,"type":"VEC2","name":"Cylinder.001_vertices#0_TEXCOORD_1"},{"bufferView":0,"byteOffset":28,"componentType":5123,"count":704,"type":"VEC4","name":"Cylinder.001_vertices#0_COLOR_0"},{"bufferView":1,"componentType":5123,"count":960,"type":"SCALAR","name":"Cylinder.001_indices#1"},{"bufferView":0,"byteOffset":25344,"componentType":5126,"count":240,"min":[-0.47552892565727236,-0.5,-0.4999999701976776],"max":[0.47552892565727236,0.5,0.4999999701976776],"type":"VEC3","name":"Icosphere_vertices#0_POSITION"},{"bufferView":0,"byteOffset":25356,"componentType":5120,"count":240,"type":"VEC4","name":"Icosphere_vertices#0_TANGENT"},{"bufferView":0,"byteOffset":25360,"componentType":5120,"count":240,"type":"VEC4","name":"Icosphere_vertices#0_NORMAL"},{"bufferView":0,"byteOffset":25364,"componentType":5122,"count":240,"type":"VEC2","name":"Icosphere_vertices#0_TEXCOORD_0"},{"bufferView":0,"byteOffset":25368,"componentType":5122,"count":240,"type":"VEC2","name":"Icosphere_vertices#0_TEXCOORD_1"},{"bufferView":0,"byteOffset":25372,"componentType":5123,"count":240,"type":"VEC4","name":"Icosphere_vertices#0_COLOR_0"},{"bufferView":1,"byteOffset":1920,"componentType":5123,"count":240,"type":"SCALAR","name":"Icosphere_indices#0"}],"asset":{"generator":"Extended Khronos glTF Blender I/O v1.0.0","copyright":"Juha Ronkko","version":"2.0","extensions":{"ASOBO_asset_optimized":{"BoundingBoxMax":[1.0,50.00003433227539,1.0],"BoundingBoxMin":[-1.0,-50.0,-1.0],"MajorVersion":4,"MinorVersion":2},"ASOBO_normal_map_convention":{"tangent_space_convention":"DirectX"}}},"bufferViews":[{"buffer":0,"byteLength":33984,"byteStride":36,"target":34962,"name":"BufferViewVertexND"},{"buffer":0,"byteLength":2400,"byteOffset":33984,"target":34963,"name":"BufferViewIndex"}],"extensionsUsed":["ASOBO_normal_map_convention","ASOBO_macro_light","ASOBO_asset_optimized"],"materials":[{"name":"blue","pbrMetallicRoughness":{"baseColorFactor":[0.0,0.0015176646411418918,0.7991030216217041,1.0],"metallicFactor":0.0,"roughnessFactor":0.5}},{"name":"white","pbrMetallicRoughness":{"baseColorFactor":[0.800000011920929,0.800000011920929,0.800000011920929,1.0],"metallicFactor":0.0,"roughnessFactor":0.5}}],"meshes":[{"primitives":[{"attributes":{"COLOR_0":5,"NORMAL":2,"POSITION":0,"TANGENT":1,"TEXCOORD_0":3,"TEXCOORD_1":4},"indices":6,"material":0,"mode":4,"extras":{"ASOBO_primitive":{"PrimitiveCount":96,"VertexType":"VTX","VertexVersion":2}}},{"attributes":{"COLOR_0":5,"NORMAL":2,"POSITION":0,"TANGENT":1,"TEXCOORD_0":3,"TEXCOORD_1":4},"indices":6,"material":1,"mode":4,"extras":{"ASOBO_primitive":{"PrimitiveCount":224,"StartIndex":288,"VertexType":"VTX","VertexVersion":2}}}],"name":"Cylinder.001"},{"primitives":[{"attributes":{"COLOR_0":12,"NORMAL":9,"POSITION":7,"TANGENT":8,"TEXCOORD_0":10,"TEXCOORD_1":11},"indices":13,"material":1,"mode":4,"extras":{"ASOBO_primitive":{"PrimitiveCount":80,"VertexType":"VTX","VertexVersion":2}}}],"name":"Icosphere"}],"nodes":[{"translation":[0.0,50.050174713134769,0.0],"mesh":0,"name":"Cylinder"},{"translation":[0.5,0.0,0.0],"rotation":[0.7071067690849304,0.0,0.0,0.7071068286895752],"extras":{"msfs_light_day_night_cycle":1,"msfs_light_has_symmetry":1},"extensions":{"ASOBO_macro_light":{"color":[1,0,0.005209510680288076],"cone_angle":360,"day_night_cycle":true,"flash_duration":0,"flash_frequency":0,"flash_phase":0,"has_simmetry":true,"intensity":50,"rotation_speed":0}},"name":"Point"},{"translation":[-0.5,0.0,0.0],"rotation":[0.7071067690849304,0.0,0.0,0.7071068286895752],"extras":{"msfs_light_day_night_cycle":1,"msfs_light_has_symmetry":1},"extensions":{"ASOBO_macro_light":{"color":[1,0,0.005209510680288076],"cone_angle":360,"day_night_cycle":true,"flash_duration":0,"flash_frequency":0,"flash_phase":0,"has_simmetry":true,"intensity":50,"rotation_speed":0}},"name":"Point.001"},{"translation":[0.0,0.0,-0.5],"rotation":[0.7071067690849304,0.0,0.0,0.7071068286895752],"extras":{"msfs_light_day_night_cycle":1,"msfs_light_has_symmetry":1},"extensions":{"ASOBO_macro_light":{"color":[1,0,0.005209510680288076],"cone_angle":360,"day_night_cycle":true,"flash_duration":0,"flash_frequency":0,"flash_phase":0,"has_simmetry":true,"intensity":50,"rotation_speed":0}},"name":"Point.002"},{"translation":[0.0,0.0,0.5],"rotation":[0.7071067690849304,0.0,0.0,0.7071068286895752],"extras":{"msfs_light_day_night_cycle":1,"msfs_light_has_symmetry":1},"extensions":{"ASOBO_macro_light":{"color":[1,0,0.005209510680288076],"cone_angle":360,"day_night_cycle":true,"flash_duration":0,"flash_frequency":0,"flash_phase":0,"has_simmetry":true,"intensity":50,"rotation_speed":0}},"name":"Point.003"},{"translation":[0.0,0.5,0.0],"rotation":[0.7071067690849304,0.0,0.0,0.7071068286895752],"extras":{"msfs_light_day_night_cycle":1,"msfs_light_has_symmetry":1},"extensions":{"ASOBO_macro_light":{"color":[1,0,0.005209510680288076],"cone_angle":360,"day_night_cycle":true,"flash_duration":0,"flash_frequency":0,"flash_phase":0,"has_simmetry":true,"intensity":50,"rotation_speed":0}},"name":"Point.004"},{"translation":[0.0,100.43089294433594,0.0],"mesh":1,"name":"Icosphere","children":[1,2,3,4,5]}],"scene":0,"scenes":[{"nodes":[0,6],"name":"Scene","extras":{"glTF2ExportSettings":{"export_apply":1,"export_copyright":"Juha Ronkko","export_extras":1,"export_generate_guid":1,"export_texture_dir":"../texture","export_xml":1,"export_xml_file":"hamina_flagpole.xml","use_selection":1},"msfs_guid":"{b990caa9-7e3b-4179-7e0b-689d7c7c3744}"}}],"buffers":[{"byteLength":36384,"uri":"hamina_flagpole.bin"}]}
