{"accessors":[{"bufferView":0,"componentType":5126,"count":636,"min":[-2.28855299949646,0.0,-2.2885520458221437],"max":[2.2885525226593019,119.0047378540039,2.288553237915039],"type":"VEC3","name":"Cylinder_vertices#0_POSITION"},{"bufferView":0,"byteOffset":12,"componentType":5120,"count":636,"type":"VEC4","name":"Cylinder_vertices#0_TANGENT"},{"bufferView":0,"byteOffset":16,"componentType":5120,"count":636,"type":"VEC4","name":"Cylinder_vertices#0_NORMAL"},{"bufferView":0,"byteOffset":20,"componentType":5122,"count":636,"type":"VEC2","name":"Cylinder_vertices#0_TEXCOORD_0"},{"bufferView":0,"byteOffset":24,"componentType":5122,"count":636,"type":"VEC2","name":"Cylinder_vertices#0_TEXCOORD_1"},{"bufferView":0,"byteOffset":28,"componentType":5123,"count":636,"type":"VEC4","name":"Cylinder_vertices#0_COLOR_0"},{"bufferView":1,"componentType":5123,"count":960,"type":"SCALAR","name":"Cylinder_indices#1"},{"bufferView":0,"byteOffset":22896,"componentType":5126,"count":645,"min":[-2.8794922828674318,142.8229522705078,-2.505028486251831],"max":[2.5230648517608644,202.2615509033203,2.906334400177002],"type":"VEC3","name":"Spiral.004_vertices#0_POSITION"},{"bufferView":0,"byteOffset":22908,"componentType":5120,"count":645,"type":"VEC4","name":"Spiral.004_vertices#0_TANGENT"},{"bufferView":0,"byteOffset":22912,"componentType":5120,"count":645,"type":"VEC4","name":"Spiral.004_vertices#0_NORMAL"},{"bufferView":0,"byteOffset":22916,"componentType":5122,"count":645,"type":"VEC2","name":"Spiral.004_vertices#0_TEXCOORD_0"},{"bufferView":0,"byteOffset":22920,"componentType":5122,"count":645,"type":"VEC2","name":"Spiral.004_vertices#0_TEXCOORD_1"},{"bufferView":0,"byteOffset":22924,"componentType":5123,"count":645,"type":"VEC4","name":"Spiral.004_vertices#0_COLOR_0"},{"bufferView":1,"byteOffset":1920,"componentType":5123,"count":3036,"type":"SCALAR","name":"Spiral.004_indices#0"}],"asset":{"generator":"Extended Khronos glTF Blender I/O v1.0.0","copyright":"FISD","version":"2.0","extensions":{"ASOBO_asset_optimized":{"BoundingBoxMax":[2.094989061355591,285.4001159667969,2.3090178966522219],"BoundingBoxMin":[-2.2876925468444826,0.0,-2.0949888229370119],"MajorVersion":4,"MinorVersion":2},"ASOBO_normal_map_convention":{"tangent_space_convention":"DirectX"}}},"bufferViews":[{"buffer":0,"byteLength":46116,"byteStride":36,"target":34962,"name":"BufferViewVertexND"},{"buffer":0,"byteLength":7992,"byteOffset":46116,"target":34963,"name":"BufferViewIndex"}],"extensionsUsed":["ASOBO_normal_map_convention","MSFT_texture_dds","ASOBO_asset_optimized"],"extensionsRequired":["MSFT_texture_dds"],"materials":[{"name":"Betoni","normalTexture":{"index":0},"pbrMetallicRoughness":{"metallicFactor":0.0,"baseColorTexture":{"index":1}}},{"name":"Metalli","normalTexture":{"index":2},"pbrMetallicRoughness":{"metallicFactor":0.8914285898208618,"roughnessFactor":0.9171428680419922,"baseColorTexture":{"index":3}}}],"meshes":[{"primitives":[{"attributes":{"COLOR_0":5,"NORMAL":2,"POSITION":0,"TANGENT":1,"TEXCOORD_0":3,"TEXCOORD_1":4},"indices":6,"material":0,"mode":4,"extras":{"ASOBO_primitive":{"PrimitiveCount":256,"VertexType":"VTX","VertexVersion":2}}},{"attributes":{"COLOR_0":5,"NORMAL":2,"POSITION":0,"TANGENT":1,"TEXCOORD_0":3,"TEXCOORD_1":4},"indices":6,"material":1,"mode":4,"extras":{"ASOBO_primitive":{"PrimitiveCount":64,"StartIndex":768,"VertexType":"VTX","VertexVersion":2}}}],"name":"Cylinder"},{"primitives":[{"attributes":{"COLOR_0":12,"NORMAL":9,"POSITION":7,"TANGENT":8,"TEXCOORD_0":10,"TEXCOORD_1":11},"indices":13,"material":1,"mode":4,"extras":{"ASOBO_primitive":{"PrimitiveCount":1012,"VertexType":"VTX","VertexVersion":2}}}],"name":"Spiral.004"}],"nodes":[{"translation":[-0.2145998477935791,-1.8229122161865233,0.26526105403900149],"scale":[1.1538822650909424,1.473715901374817,1.1538822650909424],"mesh":0,"name":"Cylinder"},{"translation":[-0.49317416548728945,-110.23177337646485,0.4602958858013153],"rotation":[0.0,-0.9965690970420836,0.0,-0.08276525139808655],"scale":[1.0,1.7760659456253052,1.0],"mesh":1,"name":"Spiral.001"}],"scene":0,"scenes":[{"nodes":[0,1],"name":"Scene"}],"textures":[{"extensions":{"MSFT_texture_dds":{"source":0}}},{"extensions":{"MSFT_texture_dds":{"source":1}}},{"extensions":{"MSFT_texture_dds":{"source":0}}},{"extensions":{"MSFT_texture_dds":{"source":1}}}],"buffers":[{"byteLength":54108,"uri":"Piippu150.bin"}],"images":[{"uri":"BETONI_NORM.PNG.DDS","name":"Betoni_NORM","extras":"ASOBO_image_converted_meta"},{"uri":"BETONI.PNG.DDS","name":"Betoni","extras":"ASOBO_image_converted_meta"}]}
