{"accessors":[{"bufferView":0,"componentType":5126,"count":551,"min":[-4.641115665435791,-4.768770694732666,-87.35623931884766],"max":[4.640429496765137,7.7364373207092289,87.35623931884766],"type":"VEC3","name":"Cube.004_vertices#0_POSITION"},{"bufferView":0,"byteOffset":12,"componentType":5120,"count":551,"type":"VEC4","name":"Cube.004_vertices#0_TANGENT"},{"bufferView":0,"byteOffset":16,"componentType":5120,"count":551,"type":"VEC4","name":"Cube.004_vertices#0_NORMAL"},{"bufferView":0,"byteOffset":20,"componentType":5122,"count":551,"type":"VEC2","name":"Cube.004_vertices#0_TEXCOORD_0"},{"bufferView":0,"byteOffset":24,"componentType":5122,"count":551,"type":"VEC2","name":"Cube.004_vertices#0_TEXCOORD_1"},{"bufferView":0,"byteOffset":28,"componentType":5123,"count":551,"type":"VEC4","name":"Cube.004_vertices#0_COLOR_0"},{"bufferView":1,"componentType":5123,"count":1119,"type":"SCALAR","name":"Cube.004_indices#3"},{"bufferView":0,"byteOffset":19836,"componentType":5126,"count":192,"min":[-1.0845839977264405,-3.991666316986084,-0.8308320641517639],"max":[1.0845839977264405,3.991666316986084,0.8308320641517639],"type":"VEC3","name":"Cylinder.002_vertices#0_POSITION"},{"bufferView":0,"byteOffset":19848,"componentType":5120,"count":192,"type":"VEC4","name":"Cylinder.002_vertices#0_TANGENT"},{"bufferView":0,"byteOffset":19852,"componentType":5120,"count":192,"type":"VEC4","name":"Cylinder.002_vertices#0_NORMAL"},{"bufferView":0,"byteOffset":19856,"componentType":5122,"count":192,"type":"VEC2","name":"Cylinder.002_vertices#0_TEXCOORD_0"},{"bufferView":0,"byteOffset":19860,"componentType":5122,"count":192,"type":"VEC2","name":"Cylinder.002_vertices#0_TEXCOORD_1"},{"bufferView":0,"byteOffset":19864,"componentType":5123,"count":192,"type":"VEC4","name":"Cylinder.002_vertices#0_COLOR_0"},{"bufferView":1,"byteOffset":2238,"componentType":5123,"count":372,"type":"SCALAR","name":"Cylinder.002_indices#0"},{"bufferView":0,"byteOffset":26748,"componentType":5126,"count":80,"min":[-2.120907783508301,-0.8822638988494873,-12.129325866699219],"max":[2.120907783508301,1.6728191375732422,12.129325866699219],"type":"VEC3","name":"Cube.005_vertices#0_POSITION"},{"bufferView":0,"byteOffset":26760,"componentType":5120,"count":80,"type":"VEC4","name":"Cube.005_vertices#0_TANGENT"},{"bufferView":0,"byteOffset":26764,"componentType":5120,"count":80,"type":"VEC4","name":"Cube.005_vertices#0_NORMAL"},{"bufferView":0,"byteOffset":26768,"componentType":5122,"count":80,"type":"VEC2","name":"Cube.005_vertices#0_TEXCOORD_0"},{"bufferView":0,"byteOffset":26772,"componentType":5122,"count":80,"type":"VEC2","name":"Cube.005_vertices#0_TEXCOORD_1"},{"bufferView":0,"byteOffset":26776,"componentType":5123,"count":80,"type":"VEC4","name":"Cube.005_vertices#0_COLOR_0"},{"bufferView":1,"byteOffset":2982,"componentType":5123,"count":132,"type":"SCALAR","name":"Cube.005_indices#0"},{"bufferView":0,"byteOffset":29628,"componentType":5126,"count":593,"min":[-12.796796798706055,-18.475919723510743,-3.6156022548675539],"max":[12.75027084350586,4.245321273803711,15.382695198059082],"type":"VEC3","name":"Cube.006_vertices#0_POSITION"},{"bufferView":0,"byteOffset":29640,"componentType":5120,"count":593,"type":"VEC4","name":"Cube.006_vertices#0_TANGENT"},{"bufferView":0,"byteOffset":29644,"componentType":5120,"count":593,"type":"VEC4","name":"Cube.006_vertices#0_NORMAL"},{"bufferView":0,"byteOffset":29648,"componentType":5122,"count":593,"type":"VEC2","name":"Cube.006_vertices#0_TEXCOORD_0"},{"bufferView":0,"byteOffset":29652,"componentType":5122,"count":593,"type":"VEC2","name":"Cube.006_vertices#0_TEXCOORD_1"},{"bufferView":0,"byteOffset":29656,"componentType":5123,"count":593,"type":"VEC4","name":"Cube.006_vertices#0_COLOR_0"},{"bufferView":1,"byteOffset":3246,"componentType":5123,"count":1356,"type":"SCALAR","name":"Cube.006_indices#0"},{"bufferView":0,"byteOffset":50976,"componentType":5126,"count":216,"min":[-34.49948501586914,-90.57432556152344,-2.807462215423584],"max":[35.15855026245117,3.486720085144043,1.0445992946624756],"type":"VEC3","name":"Cube.007_vertices#0_POSITION"},{"bufferView":0,"byteOffset":50988,"componentType":5120,"count":216,"type":"VEC4","name":"Cube.007_vertices#0_TANGENT"},{"bufferView":0,"byteOffset":50992,"componentType":5120,"count":216,"type":"VEC4","name":"Cube.007_vertices#0_NORMAL"},{"bufferView":0,"byteOffset":50996,"componentType":5122,"count":216,"type":"VEC2","name":"Cube.007_vertices#0_TEXCOORD_0"},{"bufferView":0,"byteOffset":51000,"componentType":5122,"count":216,"type":"VEC2","name":"Cube.007_vertices#0_TEXCOORD_1"},{"bufferView":0,"byteOffset":51004,"componentType":5123,"count":216,"type":"VEC4","name":"Cube.007_vertices#0_COLOR_0"},{"bufferView":1,"byteOffset":5958,"componentType":5123,"count":456,"type":"SCALAR","name":"Cube.007_indices#0"},{"bufferView":0,"byteOffset":58752,"componentType":5126,"count":481,"min":[-49.46839904785156,-9.108464241027832,-174.49935913085938],"max":[49.468414306640628,0.9474347829818726,1.429646611213684],"type":"VEC3","name":"Cube.008_vertices#0_POSITION"},{"bufferView":0,"byteOffset":58764,"componentType":5120,"count":481,"type":"VEC4","name":"Cube.008_vertices#0_TANGENT"},{"bufferView":0,"byteOffset":58768,"componentType":5120,"count":481,"type":"VEC4","name":"Cube.008_vertices#0_NORMAL"},{"bufferView":0,"byteOffset":58772,"componentType":5122,"count":481,"type":"VEC2","name":"Cube.008_vertices#0_TEXCOORD_0"},{"bufferView":0,"byteOffset":58776,"componentType":5122,"count":481,"type":"VEC2","name":"Cube.008_vertices#0_TEXCOORD_1"},{"bufferView":0,"byteOffset":58780,"componentType":5123,"count":481,"type":"VEC4","name":"Cube.008_vertices#0_COLOR_0"},{"bufferView":1,"byteOffset":6870,"componentType":5123,"count":960,"type":"SCALAR","name":"Cube.008_indices#0"},{"bufferView":0,"byteOffset":76068,"componentType":5126,"count":218,"min":[-34.49948501586914,-90.57432556152344,-1.2690544128417969],"max":[35.15855026245117,3.486720085144043,2.5830070972442629],"type":"VEC3","name":"Cube.009_vertices#0_POSITION"},{"bufferView":0,"byteOffset":76080,"componentType":5120,"count":218,"type":"VEC4","name":"Cube.009_vertices#0_TANGENT"},{"bufferView":0,"byteOffset":76084,"componentType":5120,"count":218,"type":"VEC4","name":"Cube.009_vertices#0_NORMAL"},{"bufferView":0,"byteOffset":76088,"componentType":5122,"count":218,"type":"VEC2","name":"Cube.009_vertices#0_TEXCOORD_0"},{"bufferView":0,"byteOffset":76092,"componentType":5122,"count":218,"type":"VEC2","name":"Cube.009_vertices#0_TEXCOORD_1"},{"bufferView":0,"byteOffset":76096,"componentType":5123,"count":218,"type":"VEC4","name":"Cube.009_vertices#0_COLOR_0"},{"bufferView":1,"byteOffset":8790,"componentType":5123,"count":462,"type":"SCALAR","name":"Cube.009_indices#0"}],"asset":{"generator":"Extended Khronos glTF Blender I/O v1.0.0","copyright":"Juha Ronkko","version":"2.0","extensions":{"ASOBO_asset_optimized":{"BoundingBoxMax":[53.652652740478519,8.390815734863282,72.57836151123047],"BoundingBoxMin":[-53.65263366699219,-98.23545837402344,-144.9796600341797],"MajorVersion":4,"MinorVersion":2},"ASOBO_normal_map_convention":{"tangent_space_convention":"DirectX"}}},"bufferViews":[{"buffer":0,"byteLength":83916,"byteStride":36,"target":34962,"name":"BufferViewVertexND"},{"buffer":0,"byteLength":9714,"byteOffset":83916,"target":34963,"name":"BufferViewIndex"}],"extensionsUsed":["ASOBO_normal_map_convention","ASOBO_material_alphamode_dither","MSFT_texture_dds","ASOBO_asset_optimized"],"extensionsRequired":["MSFT_texture_dds"],"materials":[{"name":"blue.001","pbrMetallicRoughness":{"baseColorFactor":[0.00439143180847168,0.00303527619689703,0.21223077178001405,1.0],"metallicFactor":0.0,"roughnessFactor":0.5}},{"name":"meyer","pbrMetallicRoughness":{"metallicFactor":0.0,"roughnessFactor":0.5,"baseColorTexture":{"index":0}},"extensions":{"ASOBO_material_alphamode_dither":{}}},{"name":"konecranes","pbrMetallicRoughness":{"metallicFactor":0.0,"roughnessFactor":0.5,"baseColorTexture":{"index":1}}},{"name":"rc1200t","pbrMetallicRoughness":{"metallicFactor":0.0,"roughnessFactor":0.5,"baseColorTexture":{"index":2}}},{"name":"yellow.002","pbrMetallicRoughness":{"baseColorFactor":[1.0,0.6444796919822693,0.05126950889825821,1.0],"metallicFactor":0.0,"roughnessFactor":0.5}},{"name":"yellow.001","pbrMetallicRoughness":{"baseColorFactor":[1.0,0.6444796919822693,0.05126950889825821,1.0],"metallicFactor":0.0,"roughnessFactor":0.5}},{"name":"yellow","pbrMetallicRoughness":{"baseColorFactor":[1.0,0.6444796919822693,0.05126950889825821,1.0],"metallicFactor":0.0,"roughnessFactor":0.5}},{"name":"blue.002","pbrMetallicRoughness":{"baseColorFactor":[0.00439143180847168,0.00303527619689703,0.21223077178001405,1.0],"metallicFactor":0.0,"roughnessFactor":0.5}},{"name":"blue","doubleSided":true,"pbrMetallicRoughness":{"baseColorFactor":[0.00439143180847168,0.00303527619689703,0.21223077178001405,1.0],"metallicFactor":0.0,"roughnessFactor":0.5}},{"name":"blue.003","pbrMetallicRoughness":{"baseColorFactor":[0.00439143180847168,0.00303527619689703,0.21223077178001405,1.0],"metallicFactor":0.0,"roughnessFactor":0.5}}],"meshes":[{"primitives":[{"attributes":{"COLOR_0":5,"NORMAL":2,"POSITION":0,"TANGENT":1,"TEXCOORD_0":3,"TEXCOORD_1":4},"indices":6,"material":0,"mode":4,"extras":{"ASOBO_primitive":{"PrimitiveCount":365,"VertexType":"VTX","VertexVersion":2}}},{"attributes":{"COLOR_0":5,"NORMAL":2,"POSITION":0,"TANGENT":1,"TEXCOORD_0":3,"TEXCOORD_1":4},"indices":6,"material":1,"mode":4,"extras":{"ASOBO_primitive":{"PrimitiveCount":4,"StartIndex":1095,"VertexType":"VTX","VertexVersion":2}}},{"attributes":{"COLOR_0":5,"NORMAL":2,"POSITION":0,"TANGENT":1,"TEXCOORD_0":3,"TEXCOORD_1":4},"indices":6,"material":2,"mode":4,"extras":{"ASOBO_primitive":{"PrimitiveCount":2,"StartIndex":1107,"VertexType":"VTX","VertexVersion":2}}},{"attributes":{"COLOR_0":5,"NORMAL":2,"POSITION":0,"TANGENT":1,"TEXCOORD_0":3,"TEXCOORD_1":4},"indices":6,"material":3,"mode":4,"extras":{"ASOBO_primitive":{"PrimitiveCount":2,"StartIndex":1113,"VertexType":"VTX","VertexVersion":2}}}],"name":"Cube.004"},{"primitives":[{"attributes":{"COLOR_0":12,"NORMAL":9,"POSITION":7,"TANGENT":8,"TEXCOORD_0":10,"TEXCOORD_1":11},"indices":13,"material":4,"mode":4,"extras":{"ASOBO_primitive":{"PrimitiveCount":124,"VertexType":"VTX","VertexVersion":2}}}],"name":"Cylinder.002"},{"primitives":[{"attributes":{"COLOR_0":19,"NORMAL":16,"POSITION":14,"TANGENT":15,"TEXCOORD_0":17,"TEXCOORD_1":18},"indices":20,"material":5,"mode":4,"extras":{"ASOBO_primitive":{"PrimitiveCount":44,"VertexType":"VTX","VertexVersion":2}}}],"name":"Cube.005"},{"primitives":[{"attributes":{"COLOR_0":26,"NORMAL":23,"POSITION":21,"TANGENT":22,"TEXCOORD_0":24,"TEXCOORD_1":25},"indices":27,"material":6,"mode":4,"extras":{"ASOBO_primitive":{"PrimitiveCount":452,"VertexType":"VTX","VertexVersion":2}}}],"name":"Cube.006"},{"primitives":[{"attributes":{"COLOR_0":33,"NORMAL":30,"POSITION":28,"TANGENT":29,"TEXCOORD_0":31,"TEXCOORD_1":32},"indices":34,"material":7,"mode":4,"extras":{"ASOBO_primitive":{"PrimitiveCount":152,"VertexType":"VTX","VertexVersion":2}}}],"name":"Cube.007"},{"primitives":[{"attributes":{"COLOR_0":40,"NORMAL":37,"POSITION":35,"TANGENT":36,"TEXCOORD_0":38,"TEXCOORD_1":39},"indices":41,"material":8,"mode":4,"extras":{"ASOBO_primitive":{"PrimitiveCount":320,"VertexType":"VTX","VertexVersion":2}}}],"name":"Cube.008"},{"primitives":[{"attributes":{"COLOR_0":47,"NORMAL":44,"POSITION":42,"TANGENT":43,"TEXCOORD_0":45,"TEXCOORD_1":46},"indices":48,"material":9,"mode":4,"extras":{"ASOBO_primitive":{"PrimitiveCount":154,"VertexType":"VTX","VertexVersion":2}}}],"name":"Cube.009"}],"nodes":[{"translation":[0.0,100.33480834960938,12.18621063232422],"scale":[1.0,1.0,0.7660375237464905],"mesh":0,"name":"Cube"},{"translation":[0.0,111.1382064819336,90.32418823242188],"scale":[1.0,1.0,0.7660375237464905],"mesh":1,"name":"Cylinder"},{"translation":[0.0,115.66027069091796,84.7712631225586],"scale":[1.0,1.0,0.7660375237464905],"mesh":2,"name":"Cube.001"},{"translation":[0.0,106.4632797241211,61.18581771850586],"scale":[1.0,1.0,0.7660375237464905],"mesh":3,"name":"Cube.002"},{"translation":[0.020096711814403539,92.79349517822266,92.02204895019533],"scale":[1.0,1.0,0.7660375237464905],"mesh":4,"name":"Cube.003"},{"translation":[0.0,8.523849487304688,91.718017578125],"scale":[1.0,1.0,0.7660375237464905],"mesh":5,"name":"Cube.004"},{"translation":[0.020096711814403539,92.79349517822266,-67.6043472290039],"scale":[1.0,1.0,0.7660375237464905],"mesh":6,"name":"Cube.005"}],"scene":0,"scenes":[{"nodes":[0,1,2,3,4,5,6],"name":"Scene"}],"textures":[{"extensions":{"MSFT_texture_dds":{"source":0}}},{"extensions":{"MSFT_texture_dds":{"source":1}}},{"extensions":{"MSFT_texture_dds":{"source":2}}}],"buffers":[{"byteLength":93630,"uri":"turku_meyer.bin"}],"images":[{"uri":"MEYER_LOGO.PNG.DDS","name":"meyer_logo","extras":"ASOBO_image_converted_meta"},{"uri":"KONECRANES_LOGO.PNG.DDS","name":"konecranes_logo","extras":"ASOBO_image_converted_meta"},{"uri":"RC1200.PNG.DDS","name":"rc1200","extras":"ASOBO_image_converted_meta"}]}
