{"accessors":[{"bufferView":0,"componentType":5126,"count":336,"min":[-2.654210090637207,0.5,-2.011510133743286],"max":[6.288640022277832,55.4999885559082,7.238480091094971],"type":"VEC3","name":"node3_vertices#0_POSITION"},{"bufferView":0,"byteOffset":12,"componentType":5120,"count":336,"type":"VEC4","name":"node3_vertices#0_TANGENT"},{"bufferView":0,"byteOffset":16,"componentType":5120,"count":336,"type":"VEC4","name":"node3_vertices#0_NORMAL"},{"bufferView":0,"byteOffset":20,"componentType":5122,"count":336,"type":"VEC2","name":"node3_vertices#0_TEXCOORD_0"},{"bufferView":0,"byteOffset":24,"componentType":5122,"count":336,"type":"VEC2","name":"node3_vertices#0_TEXCOORD_1"},{"bufferView":0,"byteOffset":28,"componentType":5123,"count":336,"type":"VEC4","name":"node3_vertices#0_COLOR_0"},{"bufferView":1,"componentType":5123,"count":342,"type":"SCALAR","name":"node3_indices#0"},{"bufferView":0,"byteOffset":12096,"componentType":5126,"count":328,"min":[-3.535910129547119,-1.0,-2.6736199855804445],"max":[7.170330047607422,57.25,7.900589466094971],"type":"VEC3","name":"node2.003_vertices#0_POSITION"},{"bufferView":0,"byteOffset":12108,"componentType":5120,"count":328,"type":"VEC4","name":"node2.003_vertices#0_TANGENT"},{"bufferView":0,"byteOffset":12112,"componentType":5120,"count":328,"type":"VEC4","name":"node2.003_vertices#0_NORMAL"},{"bufferView":0,"byteOffset":12116,"componentType":5122,"count":328,"type":"VEC2","name":"node2.003_vertices#0_TEXCOORD_0"},{"bufferView":0,"byteOffset":12120,"componentType":5122,"count":328,"type":"VEC2","name":"node2.003_vertices#0_TEXCOORD_1"},{"bufferView":0,"byteOffset":12124,"componentType":5123,"count":328,"type":"VEC4","name":"node2.003_vertices#0_COLOR_0"},{"bufferView":1,"byteOffset":684,"componentType":5123,"count":348,"type":"SCALAR","name":"node2.003_indices#0"}],"asset":{"generator":"Extended Khronos glTF Blender I/O v1.0.0","version":"2.0","extensions":{"ASOBO_asset_optimized":{"BoundingBoxMax":[7.170330047607422,57.25,7.900589466094971],"BoundingBoxMin":[-3.535910129547119,-1.0,-2.6736199855804445],"MajorVersion":4,"MinorVersion":2},"ASOBO_normal_map_convention":{"tangent_space_convention":"DirectX"}}},"bufferViews":[{"buffer":0,"byteLength":23904,"byteStride":36,"target":34962,"name":"BufferViewVertexND"},{"buffer":0,"byteLength":1380,"byteOffset":23904,"target":34963,"name":"BufferViewIndex"}],"extensionsUsed":["ASOBO_normal_map_convention","MSFT_texture_dds","ASOBO_asset_optimized"],"extensionsRequired":["MSFT_texture_dds"],"materials":[{"name":"Alpha","alphaMode":"BLEND","doubleSided":true,"pbrMetallicRoughness":{"metallicFactor":0.0,"roughnessFactor":0.5,"baseColorTexture":{"index":0}}},{"name":"Opaque.001","pbrMetallicRoughness":{"metallicFactor":0.0,"roughnessFactor":0.5,"baseColorTexture":{"index":1}}}],"meshes":[{"primitives":[{"attributes":{"COLOR_0":5,"NORMAL":2,"POSITION":0,"TANGENT":1,"TEXCOORD_0":3,"TEXCOORD_1":4},"indices":6,"material":0,"mode":4,"extras":{"ASOBO_primitive":{"PrimitiveCount":114,"VertexType":"VTX","VertexVersion":2}}}],"name":"node3"},{"primitives":[{"attributes":{"COLOR_0":12,"NORMAL":9,"POSITION":7,"TANGENT":8,"TEXCOORD_0":10,"TEXCOORD_1":11},"indices":13,"material":1,"mode":4,"extras":{"ASOBO_primitive":{"PrimitiveCount":116,"VertexType":"VTX","VertexVersion":2}}}],"name":"node2.003"}],"nodes":[{"mesh":0,"name":"Alpha"},{"mesh":1,"name":"Opaque"}],"scene":0,"scenes":[{"nodes":[0,1],"name":"Scene"}],"textures":[{"extensions":{"MSFT_texture_dds":{"source":0}}},{"extensions":{"MSFT_texture_dds":{"source":0}}}],"buffers":[{"byteLength":25284,"uri":"Haulitorni.bin"}],"images":[{"uri":"PISPALA_SHOT-2_0.PNG.DDS","name":"pispala_Shot-2_0","extras":"ASOBO_image_converted_meta"}]}
