{
    "asset" : {
        "extensions" : {
            "ASOBO_normal_map_convention" : {
                "tangent_space_convention" : "DirectX"
            }
        },
        "generator" : "Extended Khronos glTF Blender I/O v1.0.0",
        "version" : "2.0"
    },
    "extensionsUsed" : [
        "ASOBO_normal_map_convention"
    ],
    "scene" : 0,
    "scenes" : [
        {
            "name" : "Scene",
            "nodes" : [
                0
            ]
        }
    ],
    "nodes" : [
        {
            "mesh" : 0,
            "name" : "Cylinder.1794",
            "scale" : [
                1,
                1.0030769109725952,
                1
            ],
            "translation" : [
                -0.032813072204589844,
                163,
                0
            ]
        }
    ],
    "materials" : [
        {
            "emissiveFactor" : [
                0,
                0,
                0
            ],
            "name" : "minipalette-material",
            "pbrMetallicRoughness" : {
                "baseColorTexture" : {
                    "index" : 0,
                    "texCoord" : 0
                },
                "metallicFactor" : 0,
                "roughnessFactor" : 0.5
            }
        }
    ],
    "meshes" : [
        {
            "name" : "Cylinder.971",
            "primitives" : [
                {
                    "attributes" : {
                        "POSITION" : 0,
                        "NORMAL" : 1,
                        "TEXCOORD_0" : 2
                    },
                    "indices" : 3,
                    "material" : 0
                }
            ]
        }
    ],
    "textures" : [
        {
            "source" : 0
        }
    ],
    "images" : [
        {
            "mimeType" : "image/png",
            "name" : "tinypalette",
            "uri" : "tinypalette.png"
        }
    ],
    "accessors" : [
        {
            "bufferView" : 0,
            "componentType" : 5126,
            "count" : 936,
            "max" : [
                2.836183786392212,
                161.10760498046875,
                2.7063148021698
            ],
            "min" : [
                -2.8363287448883057,
                -162.5,
                -2.879999876022339
            ],
            "type" : "VEC3"
        },
        {
            "bufferView" : 1,
            "componentType" : 5126,
            "count" : 936,
            "type" : "VEC3"
        },
        {
            "bufferView" : 2,
            "componentType" : 5126,
            "count" : 936,
            "type" : "VEC2"
        },
        {
            "bufferView" : 3,
            "componentType" : 5123,
            "count" : 1446,
            "type" : "SCALAR"
        }
    ],
    "bufferViews" : [
        {
            "buffer" : 0,
            "byteLength" : 11232,
            "byteOffset" : 0
        },
        {
            "buffer" : 0,
            "byteLength" : 11232,
            "byteOffset" : 11232
        },
        {
            "buffer" : 0,
            "byteLength" : 7488,
            "byteOffset" : 22464
        },
        {
            "buffer" : 0,
            "byteLength" : 2892,
            "byteOffset" : 29952
        }
    ],
    "buffers" : [
        {
            "byteLength" : 32844,
            "uri" : "digita_kauklahti_mast_LOD01.bin"
        }
    ]
}
