{
  "asset": {
    "version": "2.0",
    "generator": "ModelConverterX"
  },
  "scene": 0,
  "scenes": [
    {
      "nodes": [
        0
      ]
    }
  ],
  "nodes": [
    {
      "name": "node0",
      "children": [
        1,
        2,
        3,
        4
      ]
    },
    {
      "name": "node1",
      "mesh": 0
    },
    {
      "name": "node2",
      "mesh": 1
    },
    {
      "name": "node3",
      "translation": [
        0.0,
        50.0,
        -2.0
      ],
      "rotation": [
        0.70710678118654757,
        0.0,
        0.0,
        -0.70710678118654746
      ],
      "scale": [
        1.0,
        1.0,
        1.0
      ]
    },
    {
      "name": "node4",
      "translation": [
        0.0,
        101.0,
        0.0
      ],
      "rotation": [
        0.70710678118654757,
        0.0,
        0.0,
        -0.70710678118654746
      ],
      "scale": [
        1.0,
        1.0,
        1.0
      ]
    }
  ],
  "meshes": [
    {
      "primitives": [
        {
          "attributes": {
            "POSITION": 0,
            "NORMAL": 1,
            "TEXCOORD_0": 2
          },
          "indices": 3,
          "mode": 4,
          "material": 0
        }
      ],
      "name": "part000"
    },
    {
      "primitives": [
        {
          "attributes": {
            "POSITION": 4,
            "NORMAL": 5,
            "TEXCOORD_0": 6
          },
          "indices": 7,
          "mode": 4,
          "material": 1
        }
      ],
      "name": "part001"
    }
  ],
  "accessors": [
    {
      "bufferView": 1,
      "byteOffset": 0,
      "componentType": 5126,
      "count": 184,
      "type": "VEC3",
      "min": [
        -0.77512,
        39.30566,
        -0.77512000000000247
      ],
      "max": [
        0.77512,
        100.05021,
        0.77511999999999759
      ]
    },
    {
      "bufferView": 2,
      "byteOffset": 0,
      "componentType": 5126,
      "count": 184,
      "type": "VEC3"
    },
    {
      "bufferView": 3,
      "byteOffset": 0,
      "componentType": 5126,
      "count": 184,
      "type": "VEC2"
    },
    {
      "bufferView": 0,
      "byteOffset": 0,
      "componentType": 5125,
      "count": 288,
      "type": "SCALAR"
    },
    {
      "bufferView": 1,
      "byteOffset": 2208,
      "componentType": 5126,
      "count": 657,
      "type": "VEC3",
      "min": [
        -1.0,
        0.05017999999999994,
        -1.0000000000000007
      ],
      "max": [
        1.0,
        100.93089,
        1.0
      ]
    },
    {
      "bufferView": 2,
      "byteOffset": 2208,
      "componentType": 5126,
      "count": 657,
      "type": "VEC3"
    },
    {
      "bufferView": 3,
      "byteOffset": 1472,
      "componentType": 5126,
      "count": 657,
      "type": "VEC2"
    },
    {
      "bufferView": 0,
      "byteOffset": 1152,
      "componentType": 5125,
      "count": 912,
      "type": "SCALAR"
    }
  ],
  "materials": [
    {
      "pbrMetallicRoughness": {
        "baseColorFactor": [
          0.0,
          0.001518,
          0.799103,
          1.0
        ],
        "roughnessFactor": 1.0,
        "metallicFactor": 0.0
      },
      "emissiveFactor": [
        0.0,
        0.0,
        0.0
      ]
    },
    {
      "pbrMetallicRoughness": {
        "baseColorFactor": [
          0.8,
          0.8,
          0.8,
          1.0
        ],
        "roughnessFactor": 1.0,
        "metallicFactor": 0.0
      },
      "emissiveFactor": [
        0.0,
        0.0,
        0.0
      ]
    }
  ],
  "bufferViews": [
    {
      "buffer": 0,
      "byteOffset": 0,
      "byteLength": 4800
    },
    {
      "buffer": 0,
      "byteOffset": 4800,
      "byteLength": 10092,
      "byteStride": 12
    },
    {
      "buffer": 0,
      "byteOffset": 14892,
      "byteLength": 10092,
      "byteStride": 12
    },
    {
      "buffer": 0,
      "byteOffset": 24984,
      "byteLength": 6728,
      "byteStride": 8
    }
  ],
  "buffers": [
    {
      "byteLength": 31712,
      "uri": "fin_flag.bin"
    }
  ]
}