{
    "asset" : {
        "copyright" : "FISD",
        "extensions" : {
            "ASOBO_normal_map_convention" : {
                "tangent_space_convention" : "DirectX"
            }
        },
        "generator" : "Extended Khronos glTF Blender I/O v1.0.0",
        "version" : "2.0"
    },
    "extensionsUsed" : [
        "ASOBO_normal_map_convention"
    ],
    "scene" : 0,
    "scenes" : [
        {
            "name" : "Scene",
            "nodes" : [
                0,
                1
            ]
        }
    ],
    "nodes" : [
        {
            "mesh" : 0,
            "name" : "Cylinder",
            "scale" : [
                1.1538822650909424,
                1.473715901374817,
                1.1538822650909424
            ],
            "translation" : [
                -0.2145998477935791,
                -1.8229122161865234,
                0.26526105403900146
            ]
        },
        {
            "mesh" : 1,
            "name" : "Spiral.001",
            "rotation" : [
                0,
                -0.9965690970420837,
                0,
                -0.08276525139808655
            ],
            "scale" : [
                1,
                1.7760659456253052,
                1
            ],
            "translation" : [
                -0.49317416548728943,
                -110.23177337646484,
                0.4602958858013153
            ]
        }
    ],
    "materials" : [
        {
            "emissiveFactor" : [
                0,
                0,
                0
            ],
            "name" : "Betoni",
            "normalTexture" : {
                "index" : 0,
                "texCoord" : 0
            },
            "pbrMetallicRoughness" : {
                "baseColorTexture" : {
                    "index" : 1,
                    "texCoord" : 0
                },
                "metallicFactor" : 0,
                "roughnessFactor" : 1
            }
        },
        {
            "emissiveFactor" : [
                0,
                0,
                0
            ],
            "name" : "Metalli",
            "normalTexture" : {
                "index" : 2,
                "texCoord" : 0
            },
            "pbrMetallicRoughness" : {
                "baseColorTexture" : {
                    "index" : 3,
                    "texCoord" : 0
                },
                "metallicFactor" : 0.8914285898208618,
                "roughnessFactor" : 0.9171428680419922
            }
        }
    ],
    "meshes" : [
        {
            "name" : "Cylinder",
            "primitives" : [
                {
                    "attributes" : {
                        "POSITION" : 0,
                        "NORMAL" : 1,
                        "TEXCOORD_0" : 2
                    },
                    "indices" : 3,
                    "material" : 0
                },
                {
                    "attributes" : {
                        "POSITION" : 4,
                        "NORMAL" : 5,
                        "TEXCOORD_0" : 6
                    },
                    "indices" : 7,
                    "material" : 1
                }
            ]
        },
        {
            "name" : "Spiral.004",
            "primitives" : [
                {
                    "attributes" : {
                        "POSITION" : 8,
                        "NORMAL" : 9,
                        "TEXCOORD_0" : 10
                    },
                    "indices" : 11,
                    "material" : 1
                }
            ]
        }
    ],
    "textures" : [
        {
            "source" : 0
        },
        {
            "source" : 1
        },
        {
            "source" : 0
        },
        {
            "source" : 1
        }
    ],
    "images" : [
        {
            "mimeType" : "image/png",
            "name" : "Betoni_NORM",
            "uri" : "Betoni_NORM.png"
        },
        {
            "mimeType" : "image/png",
            "name" : "Betoni",
            "uri" : "Betoni.png"
        }
    ],
    "accessors" : [
        {
            "bufferView" : 0,
            "componentType" : 5126,
            "count" : 508,
            "max" : [
                2.499999761581421,
                100,
                2.5000007152557373
            ],
            "min" : [
                -2.500000238418579,
                0,
                -2.4999992847442627
            ],
            "type" : "VEC3"
        },
        {
            "bufferView" : 1,
            "componentType" : 5126,
            "count" : 508,
            "type" : "VEC3"
        },
        {
            "bufferView" : 2,
            "componentType" : 5126,
            "count" : 508,
            "type" : "VEC2"
        },
        {
            "bufferView" : 3,
            "componentType" : 5123,
            "count" : 768,
            "type" : "SCALAR"
        },
        {
            "bufferView" : 4,
            "componentType" : 5126,
            "count" : 128,
            "max" : [
                0.997495710849762,
                101.78671264648438,
                0.9974969625473022
            ],
            "min" : [
                -0.997496485710144,
                99.36607360839844,
                -0.9974952936172485
            ],
            "type" : "VEC3"
        },
        {
            "bufferView" : 5,
            "componentType" : 5126,
            "count" : 128,
            "type" : "VEC3"
        },
        {
            "bufferView" : 6,
            "componentType" : 5126,
            "count" : 128,
            "type" : "VEC2"
        },
        {
            "bufferView" : 7,
            "componentType" : 5123,
            "count" : 192,
            "type" : "SCALAR"
        },
        {
            "bufferView" : 8,
            "componentType" : 5126,
            "count" : 645,
            "max" : [
                3.175752878189087,
                143.34169006347656,
                3.658169746398926
            ],
            "min" : [
                -3.6243841648101807,
                101.2178726196289,
                -3.153050661087036
            ],
            "type" : "VEC3"
        },
        {
            "bufferView" : 9,
            "componentType" : 5126,
            "count" : 645,
            "type" : "VEC3"
        },
        {
            "bufferView" : 10,
            "componentType" : 5126,
            "count" : 645,
            "type" : "VEC2"
        },
        {
            "bufferView" : 11,
            "componentType" : 5123,
            "count" : 3036,
            "type" : "SCALAR"
        }
    ],
    "bufferViews" : [
        {
            "buffer" : 0,
            "byteLength" : 6096,
            "byteOffset" : 0
        },
        {
            "buffer" : 0,
            "byteLength" : 6096,
            "byteOffset" : 6096
        },
        {
            "buffer" : 0,
            "byteLength" : 4064,
            "byteOffset" : 12192
        },
        {
            "buffer" : 0,
            "byteLength" : 1536,
            "byteOffset" : 16256
        },
        {
            "buffer" : 0,
            "byteLength" : 1536,
            "byteOffset" : 17792
        },
        {
            "buffer" : 0,
            "byteLength" : 1536,
            "byteOffset" : 19328
        },
        {
            "buffer" : 0,
            "byteLength" : 1024,
            "byteOffset" : 20864
        },
        {
            "buffer" : 0,
            "byteLength" : 384,
            "byteOffset" : 21888
        },
        {
            "buffer" : 0,
            "byteLength" : 7740,
            "byteOffset" : 22272
        },
        {
            "buffer" : 0,
            "byteLength" : 7740,
            "byteOffset" : 30012
        },
        {
            "buffer" : 0,
            "byteLength" : 5160,
            "byteOffset" : 37752
        },
        {
            "buffer" : 0,
            "byteLength" : 6072,
            "byteOffset" : 42912
        }
    ],
    "buffers" : [
        {
            "byteLength" : 48984,
            "uri" : "Piippu150.bin"
        }
    ]
}
