{"accessors":[{"bufferView":0,"componentType":5126,"count":24036,"min":[-9.17982006072998,-0.18979999423027039,-9.17982006072998],"max":[9.17982006072998,150.0,9.17982006072998],"type":"VEC3","name":"meshId1_name.001_vertices#0_POSITION"},{"bufferView":0,"byteOffset":12,"componentType":5120,"count":24036,"type":"VEC4","name":"meshId1_name.001_vertices#0_TANGENT"},{"bufferView":0,"byteOffset":16,"componentType":5120,"count":24036,"type":"VEC4","name":"meshId1_name.001_vertices#0_NORMAL"},{"bufferView":0,"byteOffset":20,"componentType":5122,"count":24036,"type":"VEC2","name":"meshId1_name.001_vertices#0_TEXCOORD_0"},{"bufferView":0,"byteOffset":24,"componentType":5122,"count":24036,"type":"VEC2","name":"meshId1_name.001_vertices#0_TEXCOORD_1"},{"bufferView":0,"byteOffset":28,"componentType":5123,"count":24036,"type":"VEC4","name":"meshId1_name.001_vertices#0_COLOR_0"},{"bufferView":1,"componentType":5123,"count":24036,"type":"SCALAR","name":"meshId1_name.001_indices#0"}],"asset":{"generator":"Extended Khronos glTF Blender I/O v1.0.0","copyright":"Tatu Kantomaa","version":"2.0","extensions":{"ASOBO_asset_optimized":{"BoundingBoxMax":[9.17982006072998,150.0,9.17982006072998],"BoundingBoxMin":[-9.17982006072998,-0.18979999423027039,-9.17982006072998],"MajorVersion":4,"MinorVersion":2},"ASOBO_normal_map_convention":{"tangent_space_convention":"DirectX"}}},"bufferViews":[{"buffer":0,"byteLength":865296,"byteStride":36,"target":34962,"name":"BufferViewVertexND"},{"buffer":0,"byteLength":48072,"byteOffset":865296,"target":34963,"name":"BufferViewIndex"}],"extensionsUsed":["ASOBO_normal_map_convention","ASOBO_macro_light","MSFT_texture_dds","ASOBO_asset_optimized"],"extensionsRequired":["MSFT_texture_dds"],"materials":[{"name":"Lahti_radiomasto_FS","occlusionTexture":{"index":1},"emissiveTexture":{"index":0},"emissiveFactor":[0.14702729880809785,0.14702729880809785,0.14702729880809785],"pbrMetallicRoughness":{"baseColorTexture":{"index":2},"metallicRoughnessTexture":{"index":1}}}],"meshes":[{"primitives":[{"attributes":{"COLOR_0":5,"NORMAL":2,"POSITION":0,"TANGENT":1,"TEXCOORD_0":3,"TEXCOORD_1":4},"indices":6,"material":0,"mode":4,"extras":{"ASOBO_primitive":{"PrimitiveCount":8012,"VertexType":"VTX","VertexVersion":2}}}],"name":"meshId1_name.001"}],"nodes":[{"mesh":0,"name":"node3_lod_200.001"},{"translation":[-3.7515616416931154,50.000003814697269,-3.7915422916412355],"rotation":[0.7071067690849304,0.0,0.0,0.7071068286895752],"extensions":{"ASOBO_macro_light":{"color":[1,0.016807235777378084,0.0027317609637975694],"cone_angle":360,"day_night_cycle":true,"flash_duration":0,"flash_frequency":0,"flash_phase":0,"has_simmetry":true,"intensity":10,"rotation_speed":0}},"name":"Point"},{"translation":[3.791545391082764,50.000003814697269,-3.751560688018799],"rotation":[0.7071067690849304,0.0,0.0,0.7071068286895752],"extensions":{"ASOBO_macro_light":{"color":[1,0.016807235777378084,0.0027317609637975694],"cone_angle":360,"day_night_cycle":true,"flash_duration":0,"flash_frequency":0,"flash_phase":0,"has_simmetry":true,"intensity":10,"rotation_speed":0}},"name":"Point.001"},{"translation":[3.7515628337860105,50.000003814697269,3.791546583175659],"rotation":[0.7071067690849304,0.0,0.0,0.7071068286895752],"extensions":{"ASOBO_macro_light":{"color":[1,0.016807235777378084,0.0027317609637975694],"cone_angle":360,"day_night_cycle":true,"flash_duration":0,"flash_frequency":0,"flash_phase":0,"has_simmetry":true,"intensity":10,"rotation_speed":0}},"name":"Point.002"},{"translation":[-3.7915444374084474,50.000003814697269,3.751564979553222],"rotation":[0.7071067690849304,0.0,0.0,0.7071068286895752],"extensions":{"ASOBO_macro_light":{"color":[1,0.016807235777378084,0.0027317609637975694],"cone_angle":360,"day_night_cycle":true,"flash_duration":0,"flash_frequency":0,"flash_phase":0,"has_simmetry":true,"intensity":10,"rotation_speed":0}},"name":"Point.003"},{"translation":[-2.79923152923584,83.33000946044922,-2.794652223587036],"rotation":[0.7071067690849304,0.0,0.0,0.7071068286895752],"extensions":{"ASOBO_macro_light":{"color":[1,0.016807235777378084,0.0027317609637975694],"cone_angle":360,"day_night_cycle":true,"flash_duration":0,"flash_frequency":0,"flash_phase":0,"has_simmetry":true,"intensity":10,"rotation_speed":0}},"name":"Point.004"},{"translation":[2.7946557998657228,83.33000946044922,-2.7992279529571535],"rotation":[0.7071067690849304,0.0,0.0,0.7071068286895752],"extensions":{"ASOBO_macro_light":{"color":[0.8900054693222046,0.015402605757117272,0.002594716614112258],"cone_angle":360,"day_night_cycle":true,"flash_duration":0,"flash_frequency":0,"flash_phase":0,"has_simmetry":true,"intensity":10,"rotation_speed":0}},"name":"Point.005"},{"translation":[2.79923152923584,83.33000946044922,2.794659376144409],"rotation":[0.7071067690849304,0.0,0.0,0.7071068286895752],"extensions":{"ASOBO_macro_light":{"color":[1,0.016807235777378084,0.0027317609637975694],"cone_angle":360,"day_night_cycle":true,"flash_duration":0,"flash_frequency":0,"flash_phase":0,"has_simmetry":true,"intensity":10,"rotation_speed":0}},"name":"Point.006"},{"translation":[-2.794654607772827,83.33000946044922,2.7992351055145265],"rotation":[0.7071067690849304,0.0,0.0,0.7071068286895752],"extensions":{"ASOBO_macro_light":{"color":[1,0.016807235777378084,0.0027317609637975694],"cone_angle":360,"day_night_cycle":true,"flash_duration":0,"flash_frequency":0,"flash_phase":0,"has_simmetry":true,"intensity":10,"rotation_speed":0}},"name":"Point.007"},{"translation":[-1.8070347309112549,116.66001892089844,-1.8068231344223025],"rotation":[0.7071067690849304,0.0,0.0,0.7071068286895752],"extensions":{"ASOBO_macro_light":{"color":[1,0.016807235777378084,0.0027317609637975694],"cone_angle":360,"day_night_cycle":true,"flash_duration":0,"flash_frequency":0,"flash_phase":0,"has_simmetry":true,"intensity":10,"rotation_speed":0}},"name":"Point.008"},{"translation":[1.806828260421753,116.66001892089844,-1.8070306777954104],"rotation":[0.7071067690849304,0.0,0.0,0.7071068286895752],"extensions":{"ASOBO_macro_light":{"color":[0.7874124050140381,0.01406797021627426,0.0024581532925367357],"cone_angle":360,"day_night_cycle":true,"flash_duration":0,"flash_frequency":0,"flash_phase":0,"has_simmetry":true,"intensity":10,"rotation_speed":0}},"name":"Point.009"},{"translation":[1.8070358037948609,116.66001892089844,1.8068333864212037],"rotation":[0.7071067690849304,0.0,0.0,0.7071068286895752],"extensions":{"ASOBO_macro_light":{"color":[1,0.016807235777378084,0.0027317609637975694],"cone_angle":360,"day_night_cycle":true,"flash_duration":0,"flash_frequency":0,"flash_phase":0,"has_simmetry":true,"intensity":10,"rotation_speed":0}},"name":"Point.010"},{"translation":[-1.8068270683288577,116.66001892089844,1.8070409297943116],"rotation":[0.7071067690849304,0.0,0.0,0.7071068286895752],"extensions":{"ASOBO_macro_light":{"color":[1,0.016807235777378084,0.0027317609637975694],"cone_angle":360,"day_night_cycle":true,"flash_duration":0,"flash_frequency":0,"flash_phase":0,"has_simmetry":true,"intensity":10,"rotation_speed":0}},"name":"Point.011"},{"translation":[-0.8782199025154114,148.0634002685547,-0.8718336224555969],"rotation":[0.7071067690849304,0.0,0.0,0.7071068286895752],"extensions":{"ASOBO_macro_light":{"color":[1,0.016807235777378084,0.0027317609637975694],"cone_angle":360,"day_night_cycle":true,"flash_duration":0,"flash_frequency":0,"flash_phase":0,"has_simmetry":true,"intensity":10,"rotation_speed":0}},"name":"Point.012"},{"translation":[0.8718401193618774,148.0634002685547,-0.8782134056091309],"rotation":[0.7071067690849304,0.0,0.0,0.7071068286895752],"extensions":{"ASOBO_macro_light":{"color":[1,0.016807235777378084,0.0027317609637975694],"cone_angle":360,"day_night_cycle":true,"flash_duration":0,"flash_frequency":0,"flash_phase":0,"has_simmetry":true,"intensity":10,"rotation_speed":0}},"name":"Point.013"},{"translation":[0.8782199025154114,148.0634002685547,0.871846616268158],"rotation":[0.7071067690849304,0.0,0.0,0.7071068286895752],"extensions":{"ASOBO_macro_light":{"color":[1,0.016807235777378084,0.0027317609637975694],"cone_angle":360,"day_night_cycle":true,"flash_duration":0,"flash_frequency":0,"flash_phase":0,"has_simmetry":true,"intensity":10,"rotation_speed":0}},"name":"Point.014"},{"translation":[-0.8718401193618774,148.0634002685547,0.8782263994216919],"rotation":[0.7071067690849304,0.0,0.0,0.7071068286895752],"extensions":{"ASOBO_macro_light":{"color":[1,0.016807235777378084,0.0027317609637975694],"cone_angle":360,"day_night_cycle":true,"flash_duration":0,"flash_frequency":0,"flash_phase":0,"has_simmetry":true,"intensity":10,"rotation_speed":0}},"name":"Point.015"}],"scene":0,"scenes":[{"nodes":[0,1,2,3,4,5,6,7,8,9,10,11,12,13,14,15,16],"name":"Scene"}],"textures":[{"extensions":{"MSFT_texture_dds":{"source":0}}},{"extensions":{"MSFT_texture_dds":{"source":1}}},{"extensions":{"MSFT_texture_dds":{"source":2}}}],"buffers":[{"byteLength":913368,"uri":"Radiomasto_Lahti.bin"}],"images":[{"uri":"LAHTI_RADIO_FS_LM.PNG.DDS","name":"Lahti_Radio_FS_LM","extras":"ASOBO_image_converted_meta"},{"uri":"LAHTI_RADIO_FS_METALNESS.PNG.DDS","name":"Lahti_radio_FS_Metalness","extras":"ASOBO_image_converted_meta"},{"uri":"LAHTI_RADIO_FS.PNG.DDS","name":"Lahti_radio_FS","extras":"ASOBO_image_converted_meta"}]}
