{"accessors":[{"bufferView":0,"componentType":5126,"count":1595,"min":[-1.996999979019165,-4.5008111000061039,-3.011920690536499],"max":[1.9970004558563233,4.50306510925293,2.0155701637268068],"type":"VEC3","name":"Torus.001_vertices#0_POSITION"},{"bufferView":0,"byteOffset":12,"componentType":5120,"count":1595,"type":"VEC4","name":"Torus.001_vertices#0_TANGENT"},{"bufferView":0,"byteOffset":16,"componentType":5120,"count":1595,"type":"VEC4","name":"Torus.001_vertices#0_NORMAL"},{"bufferView":0,"byteOffset":20,"componentType":5122,"count":1595,"type":"VEC2","name":"Torus.001_vertices#0_TEXCOORD_0"},{"bufferView":0,"byteOffset":24,"componentType":5122,"count":1595,"type":"VEC2","name":"Torus.001_vertices#0_TEXCOORD_1"},{"bufferView":0,"byteOffset":28,"componentType":5123,"count":1595,"type":"VEC4","name":"Torus.001_vertices#0_COLOR_0"},{"bufferView":1,"componentType":5123,"count":4794,"type":"SCALAR","name":"Torus.001_indices#0"},{"bufferView":0,"byteOffset":57420,"componentType":5126,"count":160,"min":[-1.2080845832824708,-0.5553128719329834,-1.2080845832824708],"max":[1.2080845832824708,1.5671353340148926,1.2080845832824708],"type":"VEC3","name":"Torus.002_vertices#0_POSITION"},{"bufferView":0,"byteOffset":57432,"componentType":5120,"count":160,"type":"VEC4","name":"Torus.002_vertices#0_TANGENT"},{"bufferView":0,"byteOffset":57436,"componentType":5120,"count":160,"type":"VEC4","name":"Torus.002_vertices#0_NORMAL"},{"bufferView":0,"byteOffset":57440,"componentType":5122,"count":160,"type":"VEC2","name":"Torus.002_vertices#0_TEXCOORD_0"},{"bufferView":0,"byteOffset":57444,"componentType":5122,"count":160,"type":"VEC2","name":"Torus.002_vertices#0_TEXCOORD_1"},{"bufferView":0,"byteOffset":57448,"componentType":5123,"count":160,"type":"VEC4","name":"Torus.002_vertices#0_COLOR_0"},{"bufferView":1,"byteOffset":9588,"componentType":5123,"count":240,"type":"SCALAR","name":"Torus.002_indices#0"},{"bufferView":0,"byteOffset":63180,"componentType":5126,"count":32,"min":[-1.170326828956604,1.0836479663848878,-1.170326828956604],"max":[1.170326828956604,1.5222887992858887,1.170326828956604],"type":"VEC3","name":"Torus.003_vertices#0_POSITION"},{"bufferView":0,"byteOffset":63192,"componentType":5120,"count":32,"type":"VEC4","name":"Torus.003_vertices#0_TANGENT"},{"bufferView":0,"byteOffset":63196,"componentType":5120,"count":32,"type":"VEC4","name":"Torus.003_vertices#0_NORMAL"},{"bufferView":0,"byteOffset":63200,"componentType":5122,"count":32,"type":"VEC2","name":"Torus.003_vertices#0_TEXCOORD_0"},{"bufferView":0,"byteOffset":63204,"componentType":5122,"count":32,"type":"VEC2","name":"Torus.003_vertices#0_TEXCOORD_1"},{"bufferView":0,"byteOffset":63208,"componentType":5123,"count":32,"type":"VEC4","name":"Torus.003_vertices#0_COLOR_0"},{"bufferView":1,"byteOffset":10068,"componentType":5123,"count":48,"type":"SCALAR","name":"Torus.003_indices#0"},{"bufferView":0,"byteOffset":64332,"componentType":5126,"count":168,"min":[-2.018754005432129,-1.8510334491729737,-0.03004765510559082],"max":[1.989974856376648,1.6490883827209473,0.0266573429107666],"type":"VEC3","name":"Torus.004_vertices#0_POSITION"},{"bufferView":0,"byteOffset":64344,"componentType":5120,"count":168,"type":"VEC4","name":"Torus.004_vertices#0_TANGENT"},{"bufferView":0,"byteOffset":64348,"componentType":5120,"count":168,"type":"VEC4","name":"Torus.004_vertices#0_NORMAL"},{"bufferView":0,"byteOffset":64352,"componentType":5122,"count":168,"type":"VEC2","name":"Torus.004_vertices#0_TEXCOORD_0"},{"bufferView":0,"byteOffset":64356,"componentType":5122,"count":168,"type":"VEC2","name":"Torus.004_vertices#0_TEXCOORD_1"},{"bufferView":0,"byteOffset":64360,"componentType":5123,"count":168,"type":"VEC4","name":"Torus.004_vertices#0_COLOR_0"},{"bufferView":1,"byteOffset":10164,"componentType":5123,"count":348,"type":"SCALAR","name":"Torus.004_indices#0"}],"asset":{"generator":"Extended Khronos glTF Blender I/O v1.0.0","copyright":"Tatuu Kantomaa","version":"2.0","extensions":{"ASOBO_asset_optimized":{"BoundingBoxMax":[1.9970004558563233,4.50306510925293,2.0155701637268068],"BoundingBoxMin":[-2.018754005432129,-4.5008111000061039,-3.011920690536499],"MajorVersion":4,"MinorVersion":2},"ASOBO_normal_map_convention":{"tangent_space_convention":"DirectX"}}},"bufferViews":[{"buffer":0,"byteLength":70380,"byteStride":36,"target":34962,"name":"BufferViewVertexND"},{"buffer":0,"byteLength":10860,"byteOffset":70380,"target":34963,"name":"BufferViewIndex"}],"extensionsUsed":["ASOBO_normal_map_convention","ASOBO_material_glass","ASOBO_macro_light","ASOBO_material_kitty_glass","MSFT_texture_dds","ASOBO_asset_optimized"],"extensionsRequired":["MSFT_texture_dds"],"materials":[{"name":"Siilinkari","occlusionTexture":{"index":0},"pbrMetallicRoughness":{"baseColorTexture":{"index":1},"metallicRoughnessTexture":{"index":0}}},{"name":"Doubleside","doubleSided":true,"occlusionTexture":{"index":2},"pbrMetallicRoughness":{"baseColorTexture":{"index":3},"metallicRoughnessTexture":{"index":2}}},{"name":"Material","alphaMode":"BLEND","doubleSided":true,"pbrMetallicRoughness":{"baseColorFactor":[0.6152811050415039,0.6152811050415039,0.6152811050415039,0.06999999284744263],"metallicFactor":0.0,"roughnessFactor":0.5},"extensions":{"ASOBO_material_kitty_glass":{"glassReflectionMaskFactor":1.0}}}],"meshes":[{"primitives":[{"attributes":{"COLOR_0":5,"NORMAL":2,"POSITION":0,"TANGENT":1,"TEXCOORD_0":3,"TEXCOORD_1":4},"indices":6,"material":0,"mode":4,"extras":{"ASOBO_primitive":{"PrimitiveCount":1598,"VertexType":"VTX","VertexVersion":2}}}],"name":"Torus.001"},{"primitives":[{"attributes":{"COLOR_0":12,"NORMAL":9,"POSITION":7,"TANGENT":8,"TEXCOORD_0":10,"TEXCOORD_1":11},"indices":13,"material":1,"mode":4,"extras":{"ASOBO_primitive":{"PrimitiveCount":80,"VertexType":"VTX","VertexVersion":2}}}],"name":"Torus.002"},{"primitives":[{"attributes":{"COLOR_0":19,"NORMAL":16,"POSITION":14,"TANGENT":15,"TEXCOORD_0":17,"TEXCOORD_1":18},"indices":20,"material":2,"mode":4,"extras":{"ASOBO_primitive":{"PrimitiveCount":16,"VertexType":"VTX","VertexVersion":2}}}],"name":"Torus.003"},{"primitives":[{"attributes":{"COLOR_0":26,"NORMAL":23,"POSITION":21,"TANGENT":22,"TEXCOORD_0":24,"TEXCOORD_1":25},"indices":27,"material":0,"mode":4,"extras":{"ASOBO_primitive":{"PrimitiveCount":116,"VertexType":"VTX","VertexVersion":2}}}],"name":"Torus.004"}],"nodes":[{"translation":[0.0,4.369999885559082,0.0],"mesh":0,"name":"Siilinkari"},{"translation":[0.0,4.369999885559082,0.0],"mesh":1,"name":"Siilinkari DS"},{"translation":[0.0,4.369999885559082,0.0],"mesh":2,"name":"Glass"},{"translation":[0.0,7.210000038146973,0.0],"rotation":[0.7071067690849304,0.0,0.0,0.7071068286895752],"extensions":{"ASOBO_macro_light":{"color":[1,1,1],"cone_angle":360,"day_night_cycle":true,"flash_duration":0.20000000298023225,"flash_frequency":10,"flash_phase":0,"has_simmetry":true,"intensity":15,"rotation_speed":0}},"name":"Point"},{"translation":[0.7731946706771851,1.7762072086334229,3.9641194343566896],"rotation":[0.0,0.1928245723247528,0.0,0.9812332391738892],"mesh":3,"name":"Kaapeli"},{"translation":[0.0,7.210000038146973,0.0],"rotation":[0.7071067690849304,0.0,0.0,0.7071068286895752],"extensions":{"ASOBO_macro_light":{"color":[1,1,1],"cone_angle":360,"day_night_cycle":true,"flash_duration":0.20000000298023225,"flash_frequency":10,"flash_phase":0.25,"has_simmetry":true,"intensity":15,"rotation_speed":0}},"name":"Point.001"},{"translation":[0.0,7.210000038146973,0.0],"rotation":[0.7071067690849304,0.0,0.0,0.7071068286895752],"extensions":{"ASOBO_macro_light":{"color":[1,1,1],"cone_angle":360,"day_night_cycle":true,"flash_duration":0.20000000298023225,"flash_frequency":10,"flash_phase":0.5,"has_simmetry":true,"intensity":15,"rotation_speed":0}},"name":"Point.002"},{"translation":[0.0,7.210000038146973,0.0],"rotation":[0.7071067690849304,0.0,0.0,0.7071068286895752],"extensions":{"ASOBO_macro_light":{"color":[1,1,1],"cone_angle":360,"day_night_cycle":true,"flash_duration":0.20000000298023225,"flash_frequency":10,"flash_phase":0.75,"has_simmetry":true,"intensity":15,"rotation_speed":0}},"name":"Point.003"},{"translation":[0.0,7.210000038146973,0.0],"rotation":[0.7071067690849304,0.0,0.0,0.7071068286895752],"extensions":{"ASOBO_macro_light":{"color":[1,1,1],"cone_angle":360,"day_night_cycle":true,"flash_duration":0.20000000298023225,"flash_frequency":10,"flash_phase":1,"has_simmetry":true,"intensity":15,"rotation_speed":0}},"name":"Point.004"}],"scene":0,"scenes":[{"nodes":[0,1,2,3,4,5,6,7,8],"name":"Scene"}],"textures":[{"extensions":{"MSFT_texture_dds":{"source":0}}},{"extensions":{"MSFT_texture_dds":{"source":1}}},{"extensions":{"MSFT_texture_dds":{"source":0}}},{"extensions":{"MSFT_texture_dds":{"source":1}}}],"buffers":[{"byteLength":81240,"uri":"Siilinkari_majakka.bin"}],"images":[{"uri":"SIILINKARI_METALNESS_FS.PNG.DDS","name":"Siilinkari_metalness_FS","extras":"ASOBO_image_converted_meta"},{"uri":"SIILINKARI_MAJAKKA.PNG.DDS","name":"Siilinkari_majakka","extras":"ASOBO_image_converted_meta"}]}
