{"accessors":[{"bufferView":0,"componentType":5126,"count":10218,"min":[-40.030941009521487,-330.7174987792969,-69.31504821777344],"max":[80.02625274658203,0.02167999930679798,69.31503295898438],"type":"VEC3","name":"Mastot_200m_vertices#0_POSITION"},{"bufferView":0,"byteOffset":12,"componentType":5120,"count":10218,"type":"VEC4","name":"Mastot_200m_vertices#0_TANGENT"},{"bufferView":0,"byteOffset":16,"componentType":5120,"count":10218,"type":"VEC4","name":"Mastot_200m_vertices#0_NORMAL"},{"bufferView":0,"byteOffset":20,"componentType":5122,"count":10218,"type":"VEC2","name":"Mastot_200m_vertices#0_TEXCOORD_0"},{"bufferView":0,"byteOffset":24,"componentType":5122,"count":10218,"type":"VEC2","name":"Mastot_200m_vertices#0_TEXCOORD_1"},{"bufferView":0,"byteOffset":28,"componentType":5123,"count":10218,"type":"VEC4","name":"Mastot_200m_vertices#0_COLOR_0"},{"bufferView":1,"componentType":5123,"count":19770,"type":"SCALAR","name":"Mastot_200m_indices#1"},{"bufferView":0,"byteOffset":367848,"componentType":5126,"count":240,"min":[-0.9510578513145447,-1.0,-0.9999999403953552],"max":[0.9510578513145447,1.0,0.9999999403953552],"type":"VEC3","name":"Icosphere.002_vertices#0_POSITION"},{"bufferView":0,"byteOffset":367860,"componentType":5120,"count":240,"type":"VEC4","name":"Icosphere.002_vertices#0_TANGENT"},{"bufferView":0,"byteOffset":367864,"componentType":5120,"count":240,"type":"VEC4","name":"Icosphere.002_vertices#0_NORMAL"},{"bufferView":0,"byteOffset":367868,"componentType":5122,"count":240,"type":"VEC2","name":"Icosphere.002_vertices#0_TEXCOORD_0"},{"bufferView":0,"byteOffset":367872,"componentType":5122,"count":240,"type":"VEC2","name":"Icosphere.002_vertices#0_TEXCOORD_1"},{"bufferView":0,"byteOffset":367876,"componentType":5123,"count":240,"type":"VEC4","name":"Icosphere.002_vertices#0_COLOR_0"},{"bufferView":1,"byteOffset":39540,"componentType":5123,"count":240,"type":"SCALAR","name":"Icosphere.002_indices#0"},{"bufferView":0,"byteOffset":376488,"componentType":5126,"count":240,"min":[-0.9510578513145447,-1.0,-0.9999999403953552],"max":[0.9510578513145447,1.0,0.9999999403953552],"type":"VEC3","name":"Icosphere.003_vertices#0_POSITION"},{"bufferView":0,"byteOffset":376500,"componentType":5120,"count":240,"type":"VEC4","name":"Icosphere.003_vertices#0_TANGENT"},{"bufferView":0,"byteOffset":376504,"componentType":5120,"count":240,"type":"VEC4","name":"Icosphere.003_vertices#0_NORMAL"},{"bufferView":0,"byteOffset":376508,"componentType":5122,"count":240,"type":"VEC2","name":"Icosphere.003_vertices#0_TEXCOORD_0"},{"bufferView":0,"byteOffset":376512,"componentType":5122,"count":240,"type":"VEC2","name":"Icosphere.003_vertices#0_TEXCOORD_1"},{"bufferView":0,"byteOffset":376516,"componentType":5123,"count":240,"type":"VEC4","name":"Icosphere.003_vertices#0_COLOR_0"},{"bufferView":1,"byteOffset":40020,"componentType":5123,"count":240,"type":"SCALAR","name":"Icosphere.003_indices#0"},{"bufferView":0,"byteOffset":385128,"componentType":5126,"count":240,"min":[-0.9510578513145447,-1.0,-0.9999999403953552],"max":[0.9510578513145447,1.0,0.9999999403953552],"type":"VEC3","name":"Icosphere.004_vertices#0_POSITION"},{"bufferView":0,"byteOffset":385140,"componentType":5120,"count":240,"type":"VEC4","name":"Icosphere.004_vertices#0_TANGENT"},{"bufferView":0,"byteOffset":385144,"componentType":5120,"count":240,"type":"VEC4","name":"Icosphere.004_vertices#0_NORMAL"},{"bufferView":0,"byteOffset":385148,"componentType":5122,"count":240,"type":"VEC2","name":"Icosphere.004_vertices#0_TEXCOORD_0"},{"bufferView":0,"byteOffset":385152,"componentType":5122,"count":240,"type":"VEC2","name":"Icosphere.004_vertices#0_TEXCOORD_1"},{"bufferView":0,"byteOffset":385156,"componentType":5123,"count":240,"type":"VEC4","name":"Icosphere.004_vertices#0_COLOR_0"},{"bufferView":1,"byteOffset":40500,"componentType":5123,"count":240,"type":"SCALAR","name":"Icosphere.004_indices#0"},{"bufferView":0,"byteOffset":393768,"componentType":5126,"count":240,"min":[-0.9510578513145447,-1.0,-0.9999999403953552],"max":[0.9510578513145447,1.0,0.9999999403953552],"type":"VEC3","name":"Icosphere.005_vertices#0_POSITION"},{"bufferView":0,"byteOffset":393780,"componentType":5120,"count":240,"type":"VEC4","name":"Icosphere.005_vertices#0_TANGENT"},{"bufferView":0,"byteOffset":393784,"componentType":5120,"count":240,"type":"VEC4","name":"Icosphere.005_vertices#0_NORMAL"},{"bufferView":0,"byteOffset":393788,"componentType":5122,"count":240,"type":"VEC2","name":"Icosphere.005_vertices#0_TEXCOORD_0"},{"bufferView":0,"byteOffset":393792,"componentType":5122,"count":240,"type":"VEC2","name":"Icosphere.005_vertices#0_TEXCOORD_1"},{"bufferView":0,"byteOffset":393796,"componentType":5123,"count":240,"type":"VEC4","name":"Icosphere.005_vertices#0_COLOR_0"},{"bufferView":1,"byteOffset":40980,"componentType":5123,"count":240,"type":"SCALAR","name":"Icosphere.005_indices#0"}],"asset":{"generator":"Extended Khronos glTF Blender I/O v1.0.0","copyright":"Tatu Kantomaa","version":"2.0","extensions":{"ASOBO_asset_optimized":{"BoundingBoxMax":[80.02625274658203,1.0,69.31503295898438],"BoundingBoxMin":[-40.030941009521487,-330.7174987792969,-69.31504821777344],"MajorVersion":4,"MinorVersion":2},"ASOBO_normal_map_convention":{"tangent_space_convention":"DirectX"}}},"bufferViews":[{"buffer":0,"byteLength":402408,"byteStride":36,"target":34962,"name":"BufferViewVertexND"},{"buffer":0,"byteLength":41460,"byteOffset":402408,"target":34963,"name":"BufferViewIndex"}],"extensionsUsed":["ASOBO_normal_map_convention","ASOBO_macro_light","MSFT_texture_dds","ASOBO_asset_optimized"],"extensionsRequired":["MSFT_texture_dds"],"materials":[{"name":"$Material_1","alphaMode":"BLEND","doubleSided":true,"pbrMetallicRoughness":{"metallicFactor":0.0,"roughnessFactor":0.5,"baseColorTexture":{"index":0}}},{"name":"$Material_0","alphaMode":"BLEND","doubleSided":true,"pbrMetallicRoughness":{"metallicFactor":0.0,"roughnessFactor":0.5,"baseColorTexture":{"index":1}}},{"name":"glTFValidator_Added_Default_Material"}],"meshes":[{"primitives":[{"attributes":{"COLOR_0":5,"NORMAL":2,"POSITION":0,"TANGENT":1,"TEXCOORD_0":3,"TEXCOORD_1":4},"indices":6,"material":0,"mode":4,"extras":{"ASOBO_primitive":{"PrimitiveCount":6314,"VertexType":"VTX","VertexVersion":2}}},{"attributes":{"COLOR_0":5,"NORMAL":2,"POSITION":0,"TANGENT":1,"TEXCOORD_0":3,"TEXCOORD_1":4},"indices":6,"material":1,"mode":4,"extras":{"ASOBO_primitive":{"PrimitiveCount":276,"StartIndex":18942,"VertexType":"VTX","VertexVersion":2}}}],"name":"Mastot_200m"},{"primitives":[{"attributes":{"COLOR_0":12,"NORMAL":9,"POSITION":7,"TANGENT":8,"TEXCOORD_0":10,"TEXCOORD_1":11},"indices":13,"material":2,"mode":4,"extras":{"ASOBO_primitive":{"PrimitiveCount":80,"VertexType":"VTX","VertexVersion":2}}}],"name":"Icosphere.002"},{"primitives":[{"attributes":{"COLOR_0":19,"NORMAL":16,"POSITION":14,"TANGENT":15,"TEXCOORD_0":17,"TEXCOORD_1":18},"indices":20,"material":2,"mode":4,"extras":{"ASOBO_primitive":{"PrimitiveCount":80,"VertexType":"VTX","VertexVersion":2}}}],"name":"Icosphere.003"},{"primitives":[{"attributes":{"COLOR_0":26,"NORMAL":23,"POSITION":21,"TANGENT":22,"TEXCOORD_0":24,"TEXCOORD_1":25},"indices":27,"material":2,"mode":4,"extras":{"ASOBO_primitive":{"PrimitiveCount":80,"VertexType":"VTX","VertexVersion":2}}}],"name":"Icosphere.004"},{"primitives":[{"attributes":{"COLOR_0":33,"NORMAL":30,"POSITION":28,"TANGENT":29,"TEXCOORD_0":31,"TEXCOORD_1":32},"indices":34,"material":2,"mode":4,"extras":{"ASOBO_primitive":{"PrimitiveCount":80,"VertexType":"VTX","VertexVersion":2}}}],"name":"Icosphere.005"}],"nodes":[{"translation":[0.0,321.17791748046877,0.0],"mesh":0,"name":"Mastot_200m"},{"translation":[1.7999999523162842,0.0,0.0],"rotation":[0.7071067690849304,0.0,0.0,0.7071068286895752],"extras":{"msfs_light_day_night_cycle":1,"msfs_light_flash_duration":0.5,"msfs_light_flash_frequency":30,"msfs_light_flash_phase":0,"msfs_light_has_symmetry":1,"msfs_light_rotation_speed":0},"extensions":{"ASOBO_macro_light":{"color":[1,0.0008763822843320668,0],"cone_angle":360,"day_night_cycle":true,"flash_duration":0.5,"flash_frequency":30,"flash_phase":0,"has_simmetry":true,"intensity":100,"rotation_speed":0}},"name":"AOPoint"},{"translation":[-1.7999999523162842,0.0,0.0],"rotation":[0.7071067690849304,0.0,0.0,0.7071068286895752],"extras":{"msfs_light_day_night_cycle":1,"msfs_light_flash_duration":0.5,"msfs_light_flash_frequency":30,"msfs_light_flash_phase":0,"msfs_light_has_symmetry":1,"msfs_light_rotation_speed":0},"extensions":{"ASOBO_macro_light":{"color":[1,0.0008763822843320668,0],"cone_angle":360,"day_night_cycle":true,"flash_duration":0.5,"flash_frequency":30,"flash_phase":0,"has_simmetry":true,"intensity":100,"rotation_speed":0}},"name":"AOPoint.001"},{"translation":[0.0,0.0,-1.7999999523162842],"rotation":[0.7071067690849304,0.0,0.0,0.7071068286895752],"extras":{"msfs_light_day_night_cycle":1,"msfs_light_flash_duration":0.5,"msfs_light_flash_frequency":30,"msfs_light_flash_phase":0,"msfs_light_has_symmetry":1,"msfs_light_rotation_speed":0},"extensions":{"ASOBO_macro_light":{"color":[1,0.0008763822843320668,0],"cone_angle":360,"day_night_cycle":true,"flash_duration":0.5,"flash_frequency":30,"flash_phase":0,"has_simmetry":true,"intensity":100,"rotation_speed":0}},"name":"AOPoint.002"},{"translation":[0.0,0.0,1.7999999523162842],"rotation":[0.7071067690849304,0.0,0.0,0.7071068286895752],"extras":{"msfs_light_day_night_cycle":1,"msfs_light_flash_duration":0.5,"msfs_light_flash_frequency":30,"msfs_light_flash_phase":0,"msfs_light_has_symmetry":1,"msfs_light_rotation_speed":0},"extensions":{"ASOBO_macro_light":{"color":[1,0.0008763822843320668,0],"cone_angle":360,"day_night_cycle":true,"flash_duration":0.5,"flash_frequency":30,"flash_phase":0,"has_simmetry":true,"intensity":100,"rotation_speed":0}},"name":"AOPoint.003"},{"translation":[0.0,1.7999999523162842,0.0],"rotation":[0.7071067690849304,0.0,0.0,0.7071068286895752],"extras":{"msfs_light_day_night_cycle":1,"msfs_light_flash_duration":0.5,"msfs_light_flash_frequency":30,"msfs_light_flash_phase":0,"msfs_light_has_symmetry":1,"msfs_light_rotation_speed":0},"extensions":{"ASOBO_macro_light":{"color":[1,0.0008763822843320668,0],"cone_angle":360,"day_night_cycle":true,"flash_duration":0.5,"flash_frequency":30,"flash_phase":0,"has_simmetry":true,"intensity":100,"rotation_speed":0}},"name":"AOPoint.004"},{"translation":[-1.0434595346450806,291.7721862792969,0.0],"scale":[0.30000001192092898,0.30000001192092898,0.30000001192092898],"mesh":1,"name":"Icosphere","children":[1,2,3,4,5]},{"translation":[1.7999999523162842,0.0,0.0],"rotation":[0.7071067690849304,0.0,0.0,0.7071068286895752],"extras":{"msfs_light_day_night_cycle":1,"msfs_light_flash_duration":0.5,"msfs_light_flash_frequency":30,"msfs_light_flash_phase":0,"msfs_light_has_symmetry":1,"msfs_light_rotation_speed":0},"extensions":{"ASOBO_macro_light":{"color":[1,0.0008763822843320668,0],"cone_angle":360,"day_night_cycle":true,"flash_duration":0.5,"flash_frequency":30,"flash_phase":0,"has_simmetry":true,"intensity":100,"rotation_speed":0}},"name":"AOPoint.005"},{"translation":[-1.7999999523162842,0.0,0.0],"rotation":[0.7071067690849304,0.0,0.0,0.7071068286895752],"extras":{"msfs_light_day_night_cycle":1,"msfs_light_flash_duration":0.5,"msfs_light_flash_frequency":30,"msfs_light_flash_phase":0,"msfs_light_has_symmetry":1,"msfs_light_rotation_speed":0},"extensions":{"ASOBO_macro_light":{"color":[1,0.0008763822843320668,0],"cone_angle":360,"day_night_cycle":true,"flash_duration":0.5,"flash_frequency":30,"flash_phase":0,"has_simmetry":true,"intensity":100,"rotation_speed":0}},"name":"AOPoint.006"},{"translation":[0.0,0.0,-1.7999999523162842],"rotation":[0.7071067690849304,0.0,0.0,0.7071068286895752],"extras":{"msfs_light_day_night_cycle":1,"msfs_light_flash_duration":0.5,"msfs_light_flash_frequency":30,"msfs_light_flash_phase":0,"msfs_light_has_symmetry":1,"msfs_light_rotation_speed":0},"extensions":{"ASOBO_macro_light":{"color":[1,0.0008763822843320668,0],"cone_angle":360,"day_night_cycle":true,"flash_duration":0.5,"flash_frequency":30,"flash_phase":0,"has_simmetry":true,"intensity":100,"rotation_speed":0}},"name":"AOPoint.007"},{"translation":[0.0,0.0,1.7999999523162842],"rotation":[0.7071067690849304,0.0,0.0,0.7071068286895752],"extras":{"msfs_light_day_night_cycle":1,"msfs_light_flash_duration":0.5,"msfs_light_flash_frequency":30,"msfs_light_flash_phase":0,"msfs_light_has_symmetry":1,"msfs_light_rotation_speed":0},"extensions":{"ASOBO_macro_light":{"color":[1,0.0008763822843320668,0],"cone_angle":360,"day_night_cycle":true,"flash_duration":0.5,"flash_frequency":30,"flash_phase":0,"has_simmetry":true,"intensity":100,"rotation_speed":0}},"name":"AOPoint.008"},{"translation":[0.0,1.7999999523162842,0.0],"rotation":[0.7071067690849304,0.0,0.0,0.7071068286895752],"extras":{"msfs_light_day_night_cycle":1,"msfs_light_flash_duration":0.5,"msfs_light_flash_frequency":30,"msfs_light_flash_phase":0,"msfs_light_has_symmetry":1,"msfs_light_rotation_speed":0},"extensions":{"ASOBO_macro_light":{"color":[1,0.0008763822843320668,0],"cone_angle":360,"day_night_cycle":true,"flash_duration":0.5,"flash_frequency":30,"flash_phase":0,"has_simmetry":true,"intensity":100,"rotation_speed":0}},"name":"AOPoint.009"},{"translation":[1.8670402765274048,291.7721862792969,0.0],"scale":[0.30000001192092898,0.30000001192092898,0.30000001192092898],"mesh":2,"name":"Icosphere.001","children":[7,8,9,10,11]},{"translation":[1.7999999523162842,0.0,0.0],"rotation":[0.7071067690849304,0.0,0.0,0.7071068286895752],"extras":{"msfs_light_day_night_cycle":1,"msfs_light_flash_duration":0.5,"msfs_light_flash_frequency":30,"msfs_light_flash_phase":0,"msfs_light_has_symmetry":1,"msfs_light_rotation_speed":0},"extensions":{"ASOBO_macro_light":{"color":[1,0.0008763822843320668,0],"cone_angle":360,"day_night_cycle":true,"flash_duration":0.5,"flash_frequency":30,"flash_phase":0,"has_simmetry":true,"intensity":100,"rotation_speed":0}},"name":"AOPoint.010"},{"translation":[-1.7999999523162842,0.0,0.0],"rotation":[0.7071067690849304,0.0,0.0,0.7071068286895752],"extras":{"msfs_light_day_night_cycle":1,"msfs_light_flash_duration":0.5,"msfs_light_flash_frequency":30,"msfs_light_flash_phase":0,"msfs_light_has_symmetry":1,"msfs_light_rotation_speed":0},"extensions":{"ASOBO_macro_light":{"color":[1,0.0008763822843320668,0],"cone_angle":360,"day_night_cycle":true,"flash_duration":0.5,"flash_frequency":30,"flash_phase":0,"has_simmetry":true,"intensity":100,"rotation_speed":0}},"name":"AOPoint.011"},{"translation":[0.0,0.0,-1.7999999523162842],"rotation":[0.7071067690849304,0.0,0.0,0.7071068286895752],"extras":{"msfs_light_day_night_cycle":1,"msfs_light_flash_duration":0.5,"msfs_light_flash_frequency":30,"msfs_light_flash_phase":0,"msfs_light_has_symmetry":1,"msfs_light_rotation_speed":0},"extensions":{"ASOBO_macro_light":{"color":[1,0.0008763822843320668,0],"cone_angle":360,"day_night_cycle":true,"flash_duration":0.5,"flash_frequency":30,"flash_phase":0,"has_simmetry":true,"intensity":100,"rotation_speed":0}},"name":"AOPoint.012"},{"translation":[0.0,0.0,1.7999999523162842],"rotation":[0.7071067690849304,0.0,0.0,0.7071068286895752],"extras":{"msfs_light_day_night_cycle":1,"msfs_light_flash_duration":0.5,"msfs_light_flash_frequency":30,"msfs_light_flash_phase":0,"msfs_light_has_symmetry":1,"msfs_light_rotation_speed":0},"extensions":{"ASOBO_macro_light":{"color":[1,0.0008763822843320668,0],"cone_angle":360,"day_night_cycle":true,"flash_duration":0.5,"flash_frequency":30,"flash_phase":0,"has_simmetry":true,"intensity":100,"rotation_speed":0}},"name":"AOPoint.013"},{"translation":[0.0,1.7999999523162842,0.0],"rotation":[0.7071067690849304,0.0,0.0,0.7071068286895752],"extras":{"msfs_light_day_night_cycle":1,"msfs_light_flash_duration":0.5,"msfs_light_flash_frequency":30,"msfs_light_flash_phase":0,"msfs_light_has_symmetry":1,"msfs_light_rotation_speed":0},"extensions":{"ASOBO_macro_light":{"color":[1,0.0008763822843320668,0],"cone_angle":360,"day_night_cycle":true,"flash_duration":0.5,"flash_frequency":30,"flash_phase":0,"has_simmetry":true,"intensity":100,"rotation_speed":0}},"name":"AOPoint.014"},{"translation":[1.8670402765274048,173.43910217285157,1.6549054384231568],"scale":[0.30000001192092898,0.30000001192092898,0.30000001192092898],"mesh":3,"name":"Icosphere.002","children":[13,14,15,16,17]},{"translation":[1.7999999523162842,0.0,0.0],"rotation":[0.7071067690849304,0.0,0.0,0.7071068286895752],"extras":{"msfs_light_day_night_cycle":1,"msfs_light_flash_duration":0.5,"msfs_light_flash_frequency":30,"msfs_light_flash_phase":0,"msfs_light_has_symmetry":1,"msfs_light_rotation_speed":0},"extensions":{"ASOBO_macro_light":{"color":[1,0.0008763822843320668,0],"cone_angle":360,"day_night_cycle":true,"flash_duration":0.5,"flash_frequency":30,"flash_phase":0,"has_simmetry":true,"intensity":100,"rotation_speed":0}},"name":"AOPoint.015"},{"translation":[-1.7999999523162842,0.0,0.0],"rotation":[0.7071067690849304,0.0,0.0,0.7071068286895752],"extras":{"msfs_light_day_night_cycle":1,"msfs_light_flash_duration":0.5,"msfs_light_flash_frequency":30,"msfs_light_flash_phase":0,"msfs_light_has_symmetry":1,"msfs_light_rotation_speed":0},"extensions":{"ASOBO_macro_light":{"color":[1,0.0008763822843320668,0],"cone_angle":360,"day_night_cycle":true,"flash_duration":0.5,"flash_frequency":30,"flash_phase":0,"has_simmetry":true,"intensity":100,"rotation_speed":0}},"name":"AOPoint.016"},{"translation":[0.0,0.0,-1.7999999523162842],"rotation":[0.7071067690849304,0.0,0.0,0.7071068286895752],"extras":{"msfs_light_day_night_cycle":1,"msfs_light_flash_duration":0.5,"msfs_light_flash_frequency":30,"msfs_light_flash_phase":0,"msfs_light_has_symmetry":1,"msfs_light_rotation_speed":0},"extensions":{"ASOBO_macro_light":{"color":[1,0.0008763822843320668,0],"cone_angle":360,"day_night_cycle":true,"flash_duration":0.5,"flash_frequency":30,"flash_phase":0,"has_simmetry":true,"intensity":100,"rotation_speed":0}},"name":"AOPoint.017"},{"translation":[0.0,0.0,1.7999999523162842],"rotation":[0.7071067690849304,0.0,0.0,0.7071068286895752],"extras":{"msfs_light_day_night_cycle":1,"msfs_light_flash_duration":0.5,"msfs_light_flash_frequency":30,"msfs_light_flash_phase":0,"msfs_light_has_symmetry":1,"msfs_light_rotation_speed":0},"extensions":{"ASOBO_macro_light":{"color":[1,0.0008763822843320668,0],"cone_angle":360,"day_night_cycle":true,"flash_duration":0.5,"flash_frequency":30,"flash_phase":0,"has_simmetry":true,"intensity":100,"rotation_speed":0}},"name":"AOPoint.018"},{"translation":[0.0,1.7999999523162842,0.0],"rotation":[0.7071067690849304,0.0,0.0,0.7071068286895752],"extras":{"msfs_light_day_night_cycle":1,"msfs_light_flash_duration":0.5,"msfs_light_flash_frequency":30,"msfs_light_flash_phase":0,"msfs_light_has_symmetry":1,"msfs_light_rotation_speed":0},"extensions":{"ASOBO_macro_light":{"color":[1,0.0008763822843320668,0],"cone_angle":360,"day_night_cycle":true,"flash_duration":0.5,"flash_frequency":30,"flash_phase":0,"has_simmetry":true,"intensity":100,"rotation_speed":0}},"name":"AOPoint.019"},{"translation":[1.8670402765274048,173.43910217285157,-1.646828532218933],"scale":[0.30000001192092898,0.30000001192092898,0.30000001192092898],"mesh":4,"name":"Icosphere.003","children":[19,20,21,22,23]}],"scene":0,"scenes":[{"nodes":[0,6,12,18,24],"name":"Scene","extras":{"glTF2ExportSettings":{"export_copyright":"Tatu Kantomaa","export_extras":1,"export_generate_guid":1,"export_texture_dir":"../texture","export_xml":1,"export_xml_file":"fin_obst_masto_325m_flgr.xml","use_selection":1},"msfs_guid":"{93842015-8fdc-47c5-4508-48219d632c9d}"}}],"textures":[{"extensions":{"MSFT_texture_dds":{"source":0}}},{"extensions":{"MSFT_texture_dds":{"source":1}}}],"buffers":[{"byteLength":443868,"uri":"fin_obst_masto_325m_flgr.bin"}],"images":[{"uri":"LENTOESTEET.PNG.DDS","name":"lentoesteet","extras":"ASOBO_image_converted_meta"},{"uri":"EXEL.PNG.DDS","name":"exel","extras":"ASOBO_image_converted_meta"}]}
