{"accessors":[{"bufferView":0,"componentType":5126,"count":6432,"min":[-13.347929954528809,0.0,-13.347929954528809],"max":[13.347929954528809,168.0,13.347929954528809],"type":"VEC3","name":"meshId5_name.001_vertices#0_POSITION"},{"bufferView":0,"byteOffset":12,"componentType":5120,"count":6432,"type":"VEC4","name":"meshId5_name.001_vertices#0_TANGENT"},{"bufferView":0,"byteOffset":16,"componentType":5120,"count":6432,"type":"VEC4","name":"meshId5_name.001_vertices#0_NORMAL"},{"bufferView":0,"byteOffset":20,"componentType":5122,"count":6432,"type":"VEC2","name":"meshId5_name.001_vertices#0_TEXCOORD_0"},{"bufferView":0,"byteOffset":24,"componentType":5122,"count":6432,"type":"VEC2","name":"meshId5_name.001_vertices#0_TEXCOORD_1"},{"bufferView":0,"byteOffset":28,"componentType":5123,"count":6432,"type":"VEC4","name":"meshId5_name.001_vertices#0_COLOR_0"},{"bufferView":1,"componentType":5123,"count":9345,"type":"SCALAR","name":"meshId5_name.001_indices#0"},{"bufferView":0,"byteOffset":231552,"componentType":5126,"count":166,"min":[-7.0,110.5999984741211,-6.9616498947143559],"max":[7.0,111.5,6.9616498947143559],"type":"VEC3","name":"meshId5_name.002_vertices#0_POSITION"},{"bufferView":0,"byteOffset":231564,"componentType":5120,"count":166,"type":"VEC4","name":"meshId5_name.002_vertices#0_TANGENT"},{"bufferView":0,"byteOffset":231568,"componentType":5120,"count":166,"type":"VEC4","name":"meshId5_name.002_vertices#0_NORMAL"},{"bufferView":0,"byteOffset":231572,"componentType":5122,"count":166,"type":"VEC2","name":"meshId5_name.002_vertices#0_TEXCOORD_0"},{"bufferView":0,"byteOffset":231576,"componentType":5122,"count":166,"type":"VEC2","name":"meshId5_name.002_vertices#0_TEXCOORD_1"},{"bufferView":0,"byteOffset":231580,"componentType":5123,"count":166,"type":"VEC4","name":"meshId5_name.002_vertices#0_COLOR_0"},{"bufferView":1,"byteOffset":18690,"componentType":5123,"count":180,"type":"SCALAR","name":"meshId5_name.002_indices#0"}],"asset":{"generator":"Extended Khronos glTF Blender I/O v1.0.0","copyright":"Tatu Kantomaa","version":"2.0","extensions":{"ASOBO_asset_optimized":{"BoundingBoxMax":[13.347929954528809,168.0,13.347929954528809],"BoundingBoxMin":[-13.347929954528809,0.0,-13.347929954528809],"MajorVersion":4,"MinorVersion":2},"ASOBO_normal_map_convention":{"tangent_space_convention":"DirectX"}}},"bufferViews":[{"buffer":0,"byteLength":237528,"byteStride":36,"target":34962,"name":"BufferViewVertexND"},{"buffer":0,"byteLength":19050,"byteOffset":237528,"target":34963,"name":"BufferViewIndex"}],"extensionsUsed":["ASOBO_normal_map_convention","ASOBO_material_day_night_switch","ASOBO_macro_light","MSFT_texture_dds","ASOBO_asset_optimized"],"extensionsRequired":["MSFT_texture_dds"],"materials":[{"name":"Opaque","emissiveTexture":{"index":0},"emissiveFactor":[0.14702729880809785,0.14702729880809785,0.14702729880809785],"pbrMetallicRoughness":{"metallicFactor":0.0,"roughnessFactor":0.5,"baseColorTexture":{"index":1}},"extensions":{"ASOBO_material_day_night_switch":{}}},{"name":"Alpha","alphaMode":"BLEND","doubleSided":true,"emissiveTexture":{"index":2},"emissiveFactor":[0.054480284452438357,0.054480284452438357,0.054480284452438357],"pbrMetallicRoughness":{"metallicFactor":0.0,"roughnessFactor":0.5,"baseColorTexture":{"index":3}}}],"meshes":[{"primitives":[{"attributes":{"COLOR_0":5,"NORMAL":2,"POSITION":0,"TANGENT":1,"TEXCOORD_0":3,"TEXCOORD_1":4},"indices":6,"material":0,"mode":4,"extras":{"ASOBO_primitive":{"PrimitiveCount":3115,"VertexType":"VTX","VertexVersion":2}}}],"name":"meshId5_name.001"},{"primitives":[{"attributes":{"COLOR_0":12,"NORMAL":9,"POSITION":7,"TANGENT":8,"TEXCOORD_0":10,"TEXCOORD_1":11},"indices":13,"material":1,"mode":4,"extras":{"ASOBO_primitive":{"PrimitiveCount":60,"VertexType":"VTX","VertexVersion":2}}}],"name":"meshId5_name.002"}],"nodes":[{"mesh":0,"name":"Opaque"},{"translation":[4.06515645980835,40.0,-2.966507911682129],"rotation":[0.7071067690849304,0.0,0.0,0.7071068286895752],"extensions":{"ASOBO_macro_light":{"color":[1,0,0.000910600647330284],"cone_angle":360,"day_night_cycle":true,"flash_duration":0,"flash_frequency":0,"flash_phase":0,"has_simmetry":true,"intensity":10,"rotation_speed":0}},"name":"Point.004"},{"translation":[-1.4280004501342772,80.0,-4.338414669036865],"rotation":[0.7071067690849304,0.0,0.0,0.7071068286895752],"extensions":{"ASOBO_macro_light":{"color":[1,0,0.000910600647330284],"cone_angle":360,"day_night_cycle":true,"flash_duration":0,"flash_frequency":0,"flash_phase":0,"has_simmetry":true,"intensity":10,"rotation_speed":0}},"name":"Point.009"},{"translation":[4.112963676452637,40.0,2.9156653881073],"rotation":[0.7071067690849304,0.0,0.0,0.7071068286895752],"extensions":{"ASOBO_macro_light":{"color":[1,0,0.000910600647330284],"cone_angle":360,"day_night_cycle":true,"flash_duration":0,"flash_frequency":0,"flash_phase":0,"has_simmetry":true,"intensity":10,"rotation_speed":0}},"name":"Point.018"},{"translation":[-1.588986873626709,40.0,4.722229480743408],"rotation":[0.7071067690849304,0.0,0.0,0.7071068286895752],"extensions":{"ASOBO_macro_light":{"color":[1,0,0.000910600647330284],"cone_angle":360,"day_night_cycle":true,"flash_duration":0,"flash_frequency":0,"flash_phase":0,"has_simmetry":true,"intensity":10,"rotation_speed":0}},"name":"Point.019"},{"translation":[-4.9969611167907719,40.0,0.0],"rotation":[0.7071067690849304,0.0,0.0,0.7071068286895752],"extensions":{"ASOBO_macro_light":{"color":[1,0,0.000910600647330284],"cone_angle":360,"day_night_cycle":true,"flash_duration":0,"flash_frequency":0,"flash_phase":0,"has_simmetry":true,"intensity":10,"rotation_speed":0}},"name":"Point.020"},{"translation":[-1.5555543899536133,40.0,-4.737250328063965],"rotation":[0.7071067690849304,0.0,0.0,0.7071068286895752],"extensions":{"ASOBO_macro_light":{"color":[1,0,0.000910600647330284],"cone_angle":360,"day_night_cycle":true,"flash_duration":0,"flash_frequency":0,"flash_phase":0,"has_simmetry":true,"intensity":10,"rotation_speed":0}},"name":"Point.021"},{"translation":[-1.452284336090088,80.0,4.328209400177002],"rotation":[0.7071067690849304,0.0,0.0,0.7071068286895752],"extensions":{"ASOBO_macro_light":{"color":[1,0,0.000910600647330284],"cone_angle":360,"day_night_cycle":true,"flash_duration":0,"flash_frequency":0,"flash_phase":0,"has_simmetry":true,"intensity":10,"rotation_speed":0}},"name":"Point.023"},{"translation":[3.71043062210083,80.0,-2.712719678878784],"rotation":[0.7071067690849304,0.0,0.0,0.7071068286895752],"extensions":{"ASOBO_macro_light":{"color":[1,0,0.000910600647330284],"cone_angle":360,"day_night_cycle":true,"flash_duration":0,"flash_frequency":0,"flash_phase":0,"has_simmetry":true,"intensity":10,"rotation_speed":0}},"name":"Point.024"},{"translation":[3.7523908615112306,80.0,2.6627581119537355],"rotation":[0.7071067690849304,0.0,0.0,0.7071068286895752],"extensions":{"ASOBO_macro_light":{"color":[1,0,0.000910600647330284],"cone_angle":360,"day_night_cycle":true,"flash_duration":0,"flash_frequency":0,"flash_phase":0,"has_simmetry":true,"intensity":10,"rotation_speed":0}},"name":"Point.025"},{"translation":[-4.574370861053467,80.0,-0.00332498550415039],"rotation":[0.7071067690849304,0.0,0.0,0.7071068286895752],"extensions":{"ASOBO_macro_light":{"color":[1,0,0.000910600647330284],"cone_angle":360,"day_night_cycle":true,"flash_duration":0,"flash_frequency":0,"flash_phase":0,"has_simmetry":true,"intensity":10,"rotation_speed":0}},"name":"Point.026"},{"translation":[2.3671727180480959,136.0,1.9666723012924193],"rotation":[0.7071067690849304,0.0,0.0,0.7071068286895752],"extensions":{"ASOBO_macro_light":{"color":[1,0,0.000910600647330284],"cone_angle":360,"day_night_cycle":true,"flash_duration":0,"flash_frequency":0,"flash_phase":0,"has_simmetry":true,"intensity":10,"rotation_speed":0}},"name":"Point.028"},{"translation":[-0.5405354499816895,136.0,3.024327278137207],"rotation":[0.7071067690849304,0.0,0.0,0.7071068286895752],"extensions":{"ASOBO_macro_light":{"color":[1,0,0.000910600647330284],"cone_angle":360,"day_night_cycle":true,"flash_duration":0,"flash_frequency":0,"flash_phase":0,"has_simmetry":true,"intensity":10,"rotation_speed":0}},"name":"Point.029"},{"translation":[-3.0697600841522219,136.0,-0.003322601318359375],"rotation":[0.7071067690849304,0.0,0.0,0.7071068286895752],"extensions":{"ASOBO_macro_light":{"color":[1,0,0.000910600647330284],"cone_angle":360,"day_night_cycle":true,"flash_duration":0,"flash_frequency":0,"flash_phase":0,"has_simmetry":true,"intensity":10,"rotation_speed":0}},"name":"Point.030"},{"translation":[-1.5286266803741456,136.0,-2.6608083248138429],"rotation":[0.7071067690849304,0.0,0.0,0.7071068286895752],"extensions":{"ASOBO_macro_light":{"color":[1,0,0.000910600647330284],"cone_angle":360,"day_night_cycle":true,"flash_duration":0,"flash_frequency":0,"flash_phase":0,"has_simmetry":true,"intensity":10,"rotation_speed":0}},"name":"Point.031"},{"translation":[2.355708360671997,136.0,-1.9789148569107056],"rotation":[0.7071067690849304,0.0,0.0,0.7071068286895752],"extensions":{"ASOBO_macro_light":{"color":[1,0,0.000910600647330284],"cone_angle":360,"day_night_cycle":true,"flash_duration":0,"flash_frequency":0,"flash_phase":0,"has_simmetry":true,"intensity":10,"rotation_speed":0}},"name":"Point.032"},{"translation":[-0.6105048656463623,152.33299255371095,-0.7297154664993286],"rotation":[0.7071067690849304,0.0,0.0,0.7071068286895752],"extensions":{"ASOBO_macro_light":{"color":[1,1,1],"cone_angle":360,"day_night_cycle":true,"flash_duration":0.5,"flash_frequency":70,"flash_phase":0,"has_simmetry":true,"intensity":10,"rotation_speed":0}},"name":"Point.033"},{"translation":[-0.8244990706443787,152.51199340820313,0.47409260272979739],"rotation":[0.7071067690849304,0.0,0.0,0.7071068286895752],"extensions":{"ASOBO_macro_light":{"color":[1,1,1],"cone_angle":360,"day_night_cycle":true,"flash_duration":0.5,"flash_frequency":70,"flash_phase":0,"has_simmetry":true,"intensity":10,"rotation_speed":0}},"name":"Point.034"},{"translation":[0.9340000748634338,152.51199340820313,-0.1672711968421936],"rotation":[0.7071067690849304,0.0,0.0,0.7071068286895752],"extensions":{"ASOBO_macro_light":{"color":[1,1,1],"cone_angle":360,"day_night_cycle":true,"flash_duration":0.5,"flash_frequency":70,"flash_phase":0,"has_simmetry":true,"intensity":10,"rotation_speed":0}},"name":"Point.035"},{"mesh":1,"name":"Alpha"}],"scene":0,"scenes":[{"nodes":[0,1,2,3,4,5,6,7,8,9,10,11,12,13,14,15,16,17,18,19],"name":"Scene"}],"textures":[{"extensions":{"MSFT_texture_dds":{"source":0}}},{"extensions":{"MSFT_texture_dds":{"source":1}}},{"extensions":{"MSFT_texture_dds":{"source":0}}},{"extensions":{"MSFT_texture_dds":{"source":1}}}],"buffers":[{"byteLength":256578,"uri":"Nneula.bin"}],"images":[{"uri":"NASINNEULA_LM.PNG.DDS","name":"Nasinneula_LM","extras":"ASOBO_image_converted_meta"},{"uri":"NASINNEULA.PNG.DDS","name":"Nasinneula","extras":"ASOBO_image_converted_meta"}]}
