{"accessors":[{"bufferView":0,"componentType":5126,"count":408,"min":[-2.4994001388549806,-0.0027199999894946815,-2.4994001388549806],"max":[2.4994001388549806,10.417359352111817,2.4994001388549806],"type":"VEC3","name":"node2_vertices#0_POSITION"},{"bufferView":0,"byteOffset":12,"componentType":5120,"count":408,"type":"VEC4","name":"node2_vertices#0_TANGENT"},{"bufferView":0,"byteOffset":16,"componentType":5120,"count":408,"type":"VEC4","name":"node2_vertices#0_NORMAL"},{"bufferView":0,"byteOffset":20,"componentType":5122,"count":408,"type":"VEC2","name":"node2_vertices#0_TEXCOORD_0"},{"bufferView":0,"byteOffset":24,"componentType":5122,"count":408,"type":"VEC2","name":"node2_vertices#0_TEXCOORD_1"},{"bufferView":0,"byteOffset":28,"componentType":5123,"count":408,"type":"VEC4","name":"node2_vertices#0_COLOR_0"},{"bufferView":1,"componentType":5123,"count":846,"type":"SCALAR","name":"node2_indices#0"}],"asset":{"generator":"Extended Khronos glTF Blender I/O v1.0.0","copyright":"Tatu Kantomaa","version":"2.0","extensions":{"ASOBO_asset_optimized":{"BoundingBoxMax":[2.4994001388549806,10.417359352111817,2.4994001388549806],"BoundingBoxMin":[-2.4994001388549806,-0.0027199999894946815,-2.4994001388549806],"MajorVersion":4,"MinorVersion":2},"ASOBO_normal_map_convention":{"tangent_space_convention":"DirectX"}}},"bufferViews":[{"buffer":0,"byteLength":14688,"byteStride":36,"target":34962,"name":"BufferViewVertexND"},{"buffer":0,"byteLength":1692,"byteOffset":14688,"target":34963,"name":"BufferViewIndex"}],"extensionsUsed":["ASOBO_normal_map_convention","MSFT_texture_dds","ASOBO_asset_optimized"],"extensionsRequired":["MSFT_texture_dds"],"materials":[{"name":"Opaque","pbrMetallicRoughness":{"metallicFactor":0.0,"roughnessFactor":0.5,"baseColorTexture":{"index":0}}}],"meshes":[{"primitives":[{"attributes":{"COLOR_0":5,"NORMAL":2,"POSITION":0,"TANGENT":1,"TEXCOORD_0":3,"TEXCOORD_1":4},"indices":6,"material":0,"mode":4,"extras":{"ASOBO_primitive":{"PrimitiveCount":282,"VertexType":"VTX","VertexVersion":2}}}],"name":"node2"}],"nodes":[{"mesh":0,"name":"node2"}],"scene":0,"scenes":[{"nodes":[0],"name":"Scene"}],"textures":[{"extensions":{"MSFT_texture_dds":{"source":0}}}],"buffers":[{"byteLength":16380,"uri":"Kaunis_DME.bin"}],"images":[{"uri":"KAUNIS.PNG.DDS","name":"Kaunis","extras":"ASOBO_image_converted_meta"}]}
