{"accessors":[{"bufferView":0,"componentType":5126,"count":10218,"min":[-40.030941009521487,-330.7174987792969,-69.31504821777344],"max":[80.02625274658203,0.02167999930679798,69.31503295898438],"type":"VEC3","name":"Mastot_200m_vertices#0_POSITION"},{"bufferView":0,"byteOffset":12,"componentType":5120,"count":10218,"type":"VEC4","name":"Mastot_200m_vertices#0_TANGENT"},{"bufferView":0,"byteOffset":16,"componentType":5120,"count":10218,"type":"VEC4","name":"Mastot_200m_vertices#0_NORMAL"},{"bufferView":0,"byteOffset":20,"componentType":5122,"count":10218,"type":"VEC2","name":"Mastot_200m_vertices#0_TEXCOORD_0"},{"bufferView":0,"byteOffset":24,"componentType":5122,"count":10218,"type":"VEC2","name":"Mastot_200m_vertices#0_TEXCOORD_1"},{"bufferView":0,"byteOffset":28,"componentType":5123,"count":10218,"type":"VEC4","name":"Mastot_200m_vertices#0_COLOR_0"},{"bufferView":1,"componentType":5123,"count":19770,"type":"SCALAR","name":"Mastot_200m_indices#1"},{"bufferView":0,"byteOffset":367848,"componentType":5126,"count":240,"min":[-0.9510578513145447,-1.0,-0.9999999403953552],"max":[0.9510578513145447,1.0,0.9999999403953552],"type":"VEC3","name":"Icosphere_vertices#0_POSITION"},{"bufferView":0,"byteOffset":367860,"componentType":5120,"count":240,"type":"VEC4","name":"Icosphere_vertices#0_TANGENT"},{"bufferView":0,"byteOffset":367864,"componentType":5120,"count":240,"type":"VEC4","name":"Icosphere_vertices#0_NORMAL"},{"bufferView":0,"byteOffset":367868,"componentType":5122,"count":240,"type":"VEC2","name":"Icosphere_vertices#0_TEXCOORD_0"},{"bufferView":0,"byteOffset":367872,"componentType":5122,"count":240,"type":"VEC2","name":"Icosphere_vertices#0_TEXCOORD_1"},{"bufferView":0,"byteOffset":367876,"componentType":5123,"count":240,"type":"VEC4","name":"Icosphere_vertices#0_COLOR_0"},{"bufferView":1,"byteOffset":39540,"componentType":5123,"count":240,"type":"SCALAR","name":"Icosphere_indices#0"},{"bufferView":0,"byteOffset":376488,"componentType":5126,"count":240,"min":[-0.9510578513145447,-1.0,-0.9999999403953552],"max":[0.9510578513145447,1.0,0.9999999403953552],"type":"VEC3","name":"Icosphere.001_vertices#0_POSITION"},{"bufferView":0,"byteOffset":376500,"componentType":5120,"count":240,"type":"VEC4","name":"Icosphere.001_vertices#0_TANGENT"},{"bufferView":0,"byteOffset":376504,"componentType":5120,"count":240,"type":"VEC4","name":"Icosphere.001_vertices#0_NORMAL"},{"bufferView":0,"byteOffset":376508,"componentType":5122,"count":240,"type":"VEC2","name":"Icosphere.001_vertices#0_TEXCOORD_0"},{"bufferView":0,"byteOffset":376512,"componentType":5122,"count":240,"type":"VEC2","name":"Icosphere.001_vertices#0_TEXCOORD_1"},{"bufferView":0,"byteOffset":376516,"componentType":5123,"count":240,"type":"VEC4","name":"Icosphere.001_vertices#0_COLOR_0"},{"bufferView":1,"byteOffset":40020,"componentType":5123,"count":240,"type":"SCALAR","name":"Icosphere.001_indices#0"}],"asset":{"generator":"Extended Khronos glTF Blender I/O v1.0.0","copyright":"Tatu Kantomaa","version":"2.0","extensions":{"ASOBO_asset_optimized":{"BoundingBoxMax":[80.02625274658203,1.0,69.31503295898438],"BoundingBoxMin":[-40.030941009521487,-330.7174987792969,-69.31504821777344],"MajorVersion":4,"MinorVersion":2},"ASOBO_normal_map_convention":{"tangent_space_convention":"DirectX"}}},"bufferViews":[{"buffer":0,"byteLength":385128,"byteStride":36,"target":34962,"name":"BufferViewVertexND"},{"buffer":0,"byteLength":40500,"byteOffset":385128,"target":34963,"name":"BufferViewIndex"}],"extensionsUsed":["ASOBO_normal_map_convention","ASOBO_macro_light","MSFT_texture_dds","ASOBO_asset_optimized"],"extensionsRequired":["MSFT_texture_dds"],"materials":[{"name":"$Material_1","alphaMode":"BLEND","doubleSided":true,"pbrMetallicRoughness":{"metallicFactor":0.0,"roughnessFactor":0.5,"baseColorTexture":{"index":0}}},{"name":"$Material_0","alphaMode":"BLEND","doubleSided":true,"pbrMetallicRoughness":{"metallicFactor":0.0,"roughnessFactor":0.5,"baseColorTexture":{"index":1}}},{"name":"glTFValidator_Added_Default_Material"}],"meshes":[{"primitives":[{"attributes":{"COLOR_0":5,"NORMAL":2,"POSITION":0,"TANGENT":1,"TEXCOORD_0":3,"TEXCOORD_1":4},"indices":6,"material":0,"mode":4,"extras":{"ASOBO_primitive":{"PrimitiveCount":6314,"VertexType":"VTX","VertexVersion":2}}},{"attributes":{"COLOR_0":5,"NORMAL":2,"POSITION":0,"TANGENT":1,"TEXCOORD_0":3,"TEXCOORD_1":4},"indices":6,"material":1,"mode":4,"extras":{"ASOBO_primitive":{"PrimitiveCount":276,"StartIndex":18942,"VertexType":"VTX","VertexVersion":2}}}],"name":"Mastot_200m"},{"primitives":[{"attributes":{"COLOR_0":12,"NORMAL":9,"POSITION":7,"TANGENT":8,"TEXCOORD_0":10,"TEXCOORD_1":11},"indices":13,"material":2,"mode":4,"extras":{"ASOBO_primitive":{"PrimitiveCount":80,"VertexType":"VTX","VertexVersion":2}}}],"name":"Icosphere"},{"primitives":[{"attributes":{"COLOR_0":19,"NORMAL":16,"POSITION":14,"TANGENT":15,"TEXCOORD_0":17,"TEXCOORD_1":18},"indices":20,"material":2,"mode":4,"extras":{"ASOBO_primitive":{"PrimitiveCount":80,"VertexType":"VTX","VertexVersion":2}}}],"name":"Icosphere.001"}],"nodes":[{"translation":[0.0,321.17791748046877,0.0],"mesh":0,"name":"Mastot_200m"},{"translation":[5.0,0.0,0.0],"rotation":[0.7071067690849304,0.0,0.0,0.7071068286895752],"extras":{"msfs_light_day_night_cycle":1,"msfs_light_flash_duration":0.5,"msfs_light_flash_frequency":50,"msfs_light_flash_phase":0,"msfs_light_has_symmetry":1,"msfs_light_rotation_speed":0},"extensions":{"ASOBO_macro_light":{"color":[1,0,0.0034416618291288616],"cone_angle":360,"day_night_cycle":true,"flash_duration":0.5,"flash_frequency":50,"flash_phase":0,"has_simmetry":true,"intensity":50,"rotation_speed":0}},"name":"Point"},{"translation":[-5.0,0.0,0.0],"rotation":[0.7071067690849304,0.0,0.0,0.7071068286895752],"extras":{"msfs_light_day_night_cycle":1,"msfs_light_flash_duration":0.5,"msfs_light_flash_frequency":50,"msfs_light_flash_phase":0,"msfs_light_has_symmetry":1,"msfs_light_rotation_speed":0},"extensions":{"ASOBO_macro_light":{"color":[1,0,0.0034416618291288616],"cone_angle":360,"day_night_cycle":true,"flash_duration":0.5,"flash_frequency":50,"flash_phase":0,"has_simmetry":true,"intensity":50,"rotation_speed":0}},"name":"Point.001"},{"translation":[0.0,0.0,-5.0],"rotation":[0.7071067690849304,0.0,0.0,0.7071068286895752],"extras":{"msfs_light_day_night_cycle":1,"msfs_light_flash_duration":0.5,"msfs_light_flash_frequency":50,"msfs_light_flash_phase":0,"msfs_light_has_symmetry":1,"msfs_light_rotation_speed":0},"extensions":{"ASOBO_macro_light":{"color":[1,0,0.0034416618291288616],"cone_angle":360,"day_night_cycle":true,"flash_duration":0.5,"flash_frequency":50,"flash_phase":0,"has_simmetry":true,"intensity":50,"rotation_speed":0}},"name":"Point.002"},{"translation":[0.0,0.0,5.0],"rotation":[0.7071067690849304,0.0,0.0,0.7071068286895752],"extras":{"msfs_light_day_night_cycle":1,"msfs_light_flash_duration":0.5,"msfs_light_flash_frequency":50,"msfs_light_flash_phase":0,"msfs_light_has_symmetry":1,"msfs_light_rotation_speed":0},"extensions":{"ASOBO_macro_light":{"color":[1,0,0.0034416618291288616],"cone_angle":360,"day_night_cycle":true,"flash_duration":0.5,"flash_frequency":50,"flash_phase":0,"has_simmetry":true,"intensity":50,"rotation_speed":0}},"name":"Point.003"},{"translation":[0.0,5.0,0.0],"rotation":[0.7071067690849304,0.0,0.0,0.7071068286895752],"extras":{"msfs_light_day_night_cycle":1,"msfs_light_flash_duration":0.5,"msfs_light_flash_frequency":50,"msfs_light_flash_phase":0,"msfs_light_has_symmetry":1,"msfs_light_rotation_speed":0},"extensions":{"ASOBO_macro_light":{"color":[1,0,0.0034416618291288616],"cone_angle":360,"day_night_cycle":true,"flash_duration":0.5,"flash_frequency":50,"flash_phase":0,"has_simmetry":true,"intensity":50,"rotation_speed":0}},"name":"Point.004"},{"translation":[0.0,300.6863708496094,0.0],"scale":[0.5,0.5,0.5],"mesh":1,"name":"Icosphere","children":[1,2,3,4,5]},{"translation":[5.0,0.0,0.0],"rotation":[0.7071067690849304,0.0,0.0,0.7071068286895752],"extras":{"msfs_light_day_night_cycle":1,"msfs_light_flash_duration":0.5,"msfs_light_flash_frequency":50,"msfs_light_flash_phase":0,"msfs_light_has_symmetry":1,"msfs_light_rotation_speed":0},"extensions":{"ASOBO_macro_light":{"color":[1,0,0.0034416618291288616],"cone_angle":360,"day_night_cycle":true,"flash_duration":0.5,"flash_frequency":50,"flash_phase":0,"has_simmetry":true,"intensity":50,"rotation_speed":0}},"name":"Point.005"},{"translation":[-5.0,0.0,0.0],"rotation":[0.7071067690849304,0.0,0.0,0.7071068286895752],"extras":{"msfs_light_day_night_cycle":1,"msfs_light_flash_duration":0.5,"msfs_light_flash_frequency":50,"msfs_light_flash_phase":0,"msfs_light_has_symmetry":1,"msfs_light_rotation_speed":0},"extensions":{"ASOBO_macro_light":{"color":[1,0,0.0034416618291288616],"cone_angle":360,"day_night_cycle":true,"flash_duration":0.5,"flash_frequency":50,"flash_phase":0,"has_simmetry":true,"intensity":50,"rotation_speed":0}},"name":"Point.006"},{"translation":[0.0,0.0,-5.0],"rotation":[0.7071067690849304,0.0,0.0,0.7071068286895752],"extras":{"msfs_light_day_night_cycle":1,"msfs_light_flash_duration":0.5,"msfs_light_flash_frequency":50,"msfs_light_flash_phase":0,"msfs_light_has_symmetry":1,"msfs_light_rotation_speed":0},"extensions":{"ASOBO_macro_light":{"color":[1,0,0.0034416618291288616],"cone_angle":360,"day_night_cycle":true,"flash_duration":0.5,"flash_frequency":50,"flash_phase":0,"has_simmetry":true,"intensity":50,"rotation_speed":0}},"name":"Point.007"},{"translation":[0.0,0.0,5.0],"rotation":[0.7071067690849304,0.0,0.0,0.7071068286895752],"extras":{"msfs_light_day_night_cycle":1,"msfs_light_flash_duration":0.5,"msfs_light_flash_frequency":50,"msfs_light_flash_phase":0,"msfs_light_has_symmetry":1,"msfs_light_rotation_speed":0},"extensions":{"ASOBO_macro_light":{"color":[1,0,0.0034416618291288616],"cone_angle":360,"day_night_cycle":true,"flash_duration":0.5,"flash_frequency":50,"flash_phase":0,"has_simmetry":true,"intensity":50,"rotation_speed":0}},"name":"Point.008"},{"translation":[0.0,5.0,0.0],"rotation":[0.7071067690849304,0.0,0.0,0.7071068286895752],"extras":{"msfs_light_day_night_cycle":1,"msfs_light_flash_duration":0.5,"msfs_light_flash_frequency":50,"msfs_light_flash_phase":0,"msfs_light_has_symmetry":1,"msfs_light_rotation_speed":0},"extensions":{"ASOBO_macro_light":{"color":[1,0,0.0034416618291288616],"cone_angle":360,"day_night_cycle":true,"flash_duration":0.5,"flash_frequency":50,"flash_phase":0,"has_simmetry":true,"intensity":50,"rotation_speed":0}},"name":"Point.009"},{"translation":[0.0,159.60743713378907,0.0],"scale":[0.5,0.5,0.5],"mesh":2,"name":"Icosphere.001","children":[7,8,9,10,11]}],"scene":0,"scenes":[{"nodes":[0,6,12],"name":"Scene","extras":{"glTF2ExportSettings":{"export_copyright":"Tatu Kantomaa","export_extras":1,"export_generate_guid":1,"export_texture_dir":"../texture","export_xml":1,"export_xml_file":"fin_obst_masto_325m.xml","use_selection":1},"msfs_guid":"{93842015-8fdc-47c5-4508-48219d632c9d}"}}],"textures":[{"extensions":{"MSFT_texture_dds":{"source":0}}},{"extensions":{"MSFT_texture_dds":{"source":1}}}],"buffers":[{"byteLength":425628,"uri":"fin_obst_masto_325m.bin"}],"images":[{"uri":"LENTOESTEET.PNG.DDS","name":"lentoesteet","extras":"ASOBO_image_converted_meta"},{"uri":"EXEL.PNG.DDS","name":"exel","extras":"ASOBO_image_converted_meta"}]}
