{"accessors":[{"bufferView":0,"componentType":5126,"count":3898,"min":[-23.88452911376953,-141.8868408203125,-41.98434829711914],"max":[21.629959106445314,-12.886848449707032,36.101280212402347],"type":"VEC3","name":"EFXX_Mastot_F_RED_vertices#0_POSITION"},{"bufferView":0,"byteOffset":12,"componentType":5120,"count":3898,"type":"VEC4","name":"EFXX_Mastot_F_RED_vertices#0_TANGENT"},{"bufferView":0,"byteOffset":16,"componentType":5120,"count":3898,"type":"VEC4","name":"EFXX_Mastot_F_RED_vertices#0_NORMAL"},{"bufferView":0,"byteOffset":20,"componentType":5122,"count":3898,"type":"VEC2","name":"EFXX_Mastot_F_RED_vertices#0_TEXCOORD_0"},{"bufferView":0,"byteOffset":24,"componentType":5122,"count":3898,"type":"VEC2","name":"EFXX_Mastot_F_RED_vertices#0_TEXCOORD_1"},{"bufferView":0,"byteOffset":28,"componentType":5123,"count":3898,"type":"VEC4","name":"EFXX_Mastot_F_RED_vertices#0_COLOR_0"},{"bufferView":1,"componentType":5123,"count":7356,"type":"SCALAR","name":"EFXX_Mastot_F_RED_indices#1"}],"asset":{"generator":"Extended Khronos glTF Blender I/O v1.0.0","copyright":"Tatu Kantomaa","version":"2.0","extensions":{"ASOBO_asset_optimized":{"BoundingBoxMax":[21.629959106445314,-12.886848449707032,36.101280212402347],"BoundingBoxMin":[-23.88452911376953,-141.8868408203125,-41.98434829711914],"MajorVersion":4,"MinorVersion":2},"ASOBO_normal_map_convention":{"tangent_space_convention":"DirectX"}}},"bufferViews":[{"buffer":0,"byteLength":140328,"byteStride":36,"target":34962,"name":"BufferViewVertexND"},{"buffer":0,"byteLength":14712,"byteOffset":140328,"target":34963,"name":"BufferViewIndex"}],"extensionsUsed":["ASOBO_normal_map_convention","MSFT_texture_dds","ASOBO_asset_optimized"],"extensionsRequired":["MSFT_texture_dds"],"materials":[{"name":"$Material_0","alphaMode":"BLEND","doubleSided":true,"pbrMetallicRoughness":{"metallicFactor":0.0,"roughnessFactor":0.5,"baseColorTexture":{"index":0}}},{"name":"$Material_1","alphaMode":"BLEND","doubleSided":true,"pbrMetallicRoughness":{"metallicFactor":0.0,"roughnessFactor":0.5,"baseColorTexture":{"index":1}}}],"meshes":[{"primitives":[{"attributes":{"COLOR_0":5,"NORMAL":2,"POSITION":0,"TANGENT":1,"TEXCOORD_0":3,"TEXCOORD_1":4},"indices":6,"material":0,"mode":4,"extras":{"ASOBO_primitive":{"PrimitiveCount":258,"VertexType":"VTX","VertexVersion":2}}},{"attributes":{"COLOR_0":5,"NORMAL":2,"POSITION":0,"TANGENT":1,"TEXCOORD_0":3,"TEXCOORD_1":4},"indices":6,"material":1,"mode":4,"extras":{"ASOBO_primitive":{"PrimitiveCount":2194,"StartIndex":774,"VertexType":"VTX","VertexVersion":2}}}],"name":"EFXX_Mastot_F_RED"}],"nodes":[{"translation":[0.0,141.11363220214845,0.0],"mesh":0,"name":"EFXX_Mastot_F_RED"}],"scene":0,"scenes":[{"nodes":[0],"name":"Scene"}],"textures":[{"extensions":{"MSFT_texture_dds":{"source":0}}},{"extensions":{"MSFT_texture_dds":{"source":1}}}],"buffers":[{"byteLength":155040,"uri":"fin_obst_efxx_masto.bin"}],"images":[{"uri":"EXEL.PNG.DDS","name":"exel","extras":"ASOBO_image_converted_meta"},{"uri":"LENTOESTEET.PNG.DDS","name":"lentoesteet","extras":"ASOBO_image_converted_meta"}]}
